# ProBuilder 5.0.7
# https://unity3d.com/unity/features/worldbuilding/probuilder
# 24/10/2023 5:11:18 PM

mtllib ./SpecialBoxPickup.mtl
o SpecialBoxPickup

g SpecialBoxPickup
v 0.2118927 0.2386638 0.2345262
v 0.2060614 0.245936 0.2345262
v 0.3008615 0.3063604 0.2345262
v -0.2056409 0.9303913 0.2345262
v -0.1998099 0.9231189 0.2345262
v -0.29461 0.8626945 0.2345262
v -0.2128827 0.8559201 0.2345262
v 0.2118927 0.9303913 -0.2345262
v 0.2060614 0.9231189 -0.2345262
v 0.3008618 0.8626945 -0.2345263
v -0.1998099 0.245936 -0.2345262
v -0.2128827 0.3131348 -0.2345262
v -0.29461 0.3063604 -0.2345263
v -0.29461 0.3063604 0.2345262
v -0.2128827 0.3131348 0.2345262
v -0.1998099 0.245936 0.2345262
v -0.3587109 0.2386638 0.2345262
v -0.3660309 0.2461545 0.2345262
v -0.2056409 0.2386638 -0.2345262
v -0.3587109 0.2386638 -0.2345262
v -0.3660309 0.2461545 -0.2345262
v -0.340014 0.2713525 0.212327
v 0.3462659 0.2564408 0.2061086
v -0.340014 0.2564408 0.2061086
v 0.3462659 0.2713525 0.212327
v 0.3462659 0.8977025 0.212327
v 0.3611774 0.8977025 0.2061086
v 0.3611774 0.2713525 0.2061086
v -0.340014 0.8977025 0.212327
v -0.3549255 0.2713525 0.2061086
v -0.3549255 0.8977025 0.2061086
v -0.340014 0.9126141 0.2061086
v 0.3462659 0.9126141 0.2061086
v 0.3462659 0.2502642 0.1910964
v -0.340014 0.2502642 0.1910964
v -0.340014 0.2502642 0.09650183
v 0.3462659 0.2502642 0.09650183
v -0.3611023 0.2713525 0.1910964
v -0.3611023 0.8977025 0.1910964
v -0.3611023 0.8977025 0.09650183
v -0.3611023 0.2713525 0.09650183
v 0.3673541 0.8977025 0.1910964
v 0.3673541 0.2713525 0.1910964
v 0.3673541 0.8977025 0.09650183
v 0.3673541 0.2713525 0.09650183
v -0.340014 0.9187907 0.1910964
v 0.3462659 0.9187907 0.1910964
v 0.3462659 0.9187907 0.09650183
v -0.340014 0.9187907 0.09650183
v -0.3611023 0.8977025 -0.1910964
v -0.3549255 0.2713525 -0.2061086
v -0.3549255 0.8977025 -0.2061086
v -0.3611023 0.2713525 -0.1910964
v -0.3611023 0.8977025 0.06311944
v -0.3611023 0.2713525 0.06311944
v -0.340014 0.2713525 -0.212327
v -0.340014 0.8977025 -0.212327
v 0.3462659 0.2713525 -0.212327
v -0.340014 0.2564408 -0.2061086
v 0.3462659 0.2564408 -0.2061086
v 0.3462659 0.8977025 -0.212327
v 0.3611774 0.2713525 -0.2061086
v 0.3611774 0.8977025 -0.2061086
v 0.3462659 0.9126141 -0.2061086
v -0.340014 0.9126141 -0.2061086
v 0.3462659 0.9187907 -0.1910964
v -0.340014 0.9187907 -0.1910964
v -0.340014 0.9187907 0.06311944
v 0.3462659 0.9187907 0.06311944
v 0.3673541 0.2713525 -0.1910964
v 0.3673541 0.8977025 -0.1910964
v 0.3673541 0.8977025 0.06311944
v 0.3673541 0.2713525 0.06311944
v -0.340014 0.2502642 -0.1910964
v 0.3462659 0.2502642 -0.1910964
v 0.3462659 0.2502642 0.06311944
v -0.340014 0.2502642 0.06311944
v -0.3282574 0.2617168 0.09650183
v 0.334509 0.2617168 0.09650183
v 0.334509 0.2617168 0.06311944
v -0.3282574 0.2617168 0.06311944
v 0.3548749 0.2820826 0.09650183
v 0.3548749 0.8869724 0.09650183
v 0.3548749 0.8869724 0.06311944
v 0.3548749 0.2820826 0.06311944
v 0.334509 0.9073381 0.09650183
v -0.3282574 0.9073381 0.09650183
v -0.3282574 0.9073381 0.06311944
v 0.334509 0.9073381 0.06311944
v -0.348623 0.8869725 0.09650183
v -0.348623 0.2820826 0.09650183
v -0.348623 0.2820826 0.06311944
v -0.348623 0.8869725 0.06311944
v 0.2060614 0.245936 -0.2345262
v 0.3008618 0.3063604 -0.2345263
v 0.2191345 0.3131348 -0.2345262
v 0.2289673 0.3299182 -0.2345262
v 0.3003674 0.3898722 -0.2345262
v 0.2191345 0.3131348 0.2345262
v 0.2289673 0.3299182 0.2345262
v 0.3003674 0.3898722 0.2345262
v 0.3183722 0.396464 0.2345262
v 0.3649628 0.396464 0.2345262
v 0.3722827 0.3889733 0.2345262
v 0.3722827 0.2461545 0.2345262
v 0.3649628 0.2386638 0.2345262
v 0.3183722 0.396464 -0.2345262
v 0.3649628 0.396464 -0.2345262
v 0.3722827 0.3889733 -0.2345262
v 0.3722827 0.2461545 -0.2345262
v 0.3649628 0.2386638 -0.2345262
v 0.2118927 0.2386638 -0.2345262
v -0.005431491 0.316821 -0.06189222
v -0.01974874 0.2432258 0.2242112
v -0.01974878 0.2432259 -0.06189216
v -0.005431456 0.3168209 0.2242112
v 0.2213922 0.3366065 0.2242112
v 0.2213922 0.3366065 0.09651864
v 0.2954364 0.3987809 0.09651864
v 0.2954364 0.3987809 0.2242112
v 0.316662 0.4065517 0.2242112
v 0.316662 0.4065517 0.09651864
v 0.369046 0.4065517 0.09651864
v 0.369046 0.4065517 0.2242112
v 0.3821402 0.3931517 0.2242112
v 0.3821402 0.3931517 0.09651864
v 0.3821402 0.241976 0.09651864
v 0.3821402 0.241976 0.2242112
v 0.369046 0.228576 0.2242112
v 0.369046 0.228576 0.09651864
v 0.2072296 0.228576 0.09651864
v 0.2072296 0.228576 0.2242112
v 0.006027667 0.3168209 -0.2242114
v 0.006027622 0.3168209 0.06169724
v -0.008289682 0.2432258 0.06169728
v -0.008289658 0.2432258 -0.2242114
v 0.2213922 0.3366065 -0.2242112
v 0.2213922 0.3366065 0.06169736
v 0.2954364 0.3987809 -0.2242112
v 0.2954364 0.3987809 0.06169736
v 0.316662 0.4065517 -0.2242112
v 0.316662 0.4065517 0.06169736
v 0.369046 0.4065517 -0.2242112
v 0.369046 0.4065517 0.06169736
v 0.3821402 0.3931517 -0.2242112
v 0.3821402 0.3931517 0.06169736
v 0.3821402 0.241976 -0.2242112
v 0.3821402 0.241976 0.06169736
v 0.369046 0.228576 -0.2242112
v 0.369046 0.228576 0.06169736
v 0.2072296 0.228576 -0.2242112
v 0.2072296 0.228576 0.06169736
v -0.3104101 0.7625032 0.2242112
v -0.3121203 0.7725909 0.2345262
v -0.2941156 0.7791827 0.2345262
v -0.2891849 0.770274 0.2242112
v -0.2227158 0.8391368 0.2345262
v -0.2151404 0.8324485 0.2242112
v -0.2891849 0.770274 0.09651864
v -0.2151404 0.8324485 0.09651864
v -0.3104101 0.7625032 0.09651864
v 0.01301964 0.8522345 -0.06660448
v -0.3627942 0.7625032 0.09651864
v 0.0130197 0.8522344 0.2242108
v 0.027337 0.9258295 0.2242107
v 0.02733689 0.9258296 -0.06660458
v -0.2009781 0.940479 0.09651864
v -0.2009781 0.940479 0.2242112
v -0.3587109 0.9303913 0.2345262
v -0.3627942 0.940479 0.2242112
v -0.3627942 0.940479 0.09651864
v -0.3660309 0.9229004 0.2345262
v -0.3758887 0.9270789 0.09651864
v -0.3758887 0.9270789 0.2242112
v -0.3660309 0.7800817 0.2345262
v -0.3758887 0.7759032 0.2242112
v -0.3758887 0.7759032 0.09651864
v -0.3587109 0.7725909 0.2345262
v -0.3627942 0.7625032 0.2242112
v -0.1998099 0.9231189 -0.2345262
v -0.29461 0.8626945 -0.2345263
v -0.2128827 0.8559201 -0.2345262
v -0.2227158 0.8391368 -0.2345262
v -0.2941156 0.7791827 -0.2345262
v -0.3121203 0.7725909 -0.2345262
v -0.3587109 0.7725909 -0.2345262
v -0.3660309 0.7800817 -0.2345262
v -0.3660309 0.9229004 -0.2345262
v -0.3587109 0.9303913 -0.2345262
v -0.2056409 0.9303913 -0.2345262
v -0.3667633 0.7797711 0.09651864
v -0.3667633 0.923211 0.09651864
v -0.3758887 0.9270789 0.06169736
v -0.3667633 0.923211 0.06169736
v -0.3667633 0.7797711 0.06169736
v -0.3758887 0.7759032 0.06169736
v -0.3590143 0.7718414 0.06169736
v -0.3627942 0.7625032 0.06169736
v -0.312211 0.7731239 0.06169736
v -0.3104101 0.7625032 0.06169736
v -0.2943762 0.7796534 0.06169736
v -0.2891849 0.770274 0.06169736
v -0.2231158 0.8394901 0.06169736
v -0.2151404 0.8324485 0.06169736
v -0.2133759 0.8561149 0.06169736
v -0.01650884 0.8522341 0.06169723
v -0.1986063 0.9234273 0.06169736
v -0.002191541 0.9258293 0.0616972
v -0.2051105 0.9315388 0.06169736
v -0.2009781 0.940479 0.06169736
v -0.3590143 0.9311408 0.06169736
v -0.3627942 0.940479 0.06169736
v -0.3590143 0.7718414 0.09651864
v -0.312211 0.7731239 0.09651864
v -0.2943762 0.7796534 0.09651864
v -0.2231158 0.8394901 0.09651864
v -0.213376 0.856115 -0.06660386
v -0.1986064 0.9234275 -0.0666039
v -0.2051105 0.9315388 0.09651864
v -0.3590143 0.9311408 0.09651864
v 0.2191345 0.8559201 -0.2345262
v 0.3649628 0.9303913 -0.2345262
v 0.3722827 0.9229004 -0.2345262
v 0.2289673 0.8391368 -0.2345262
v 0.3722827 0.7800817 -0.2345262
v 0.3003674 0.7791827 -0.2345262
v 0.3649628 0.7725909 -0.2345262
v 0.3183722 0.7725909 -0.2345262
v 0.3649628 0.9303913 0.2345262
v 0.3722827 0.9229004 0.2345262
v 0.3008615 0.8626945 0.2345262
v 0.2118927 0.9303913 0.2345262
v 0.2060614 0.9231189 0.2345262
v 0.2191345 0.8559201 0.2345262
v 0.3722827 0.7800817 0.2345262
v 0.2289673 0.8391368 0.2345262
v 0.3649628 0.7725909 0.2345262
v 0.3003674 0.7791827 0.2345262
v 0.3183722 0.7725909 0.2345262
v -0.004401104 0.8522343 -0.06660467
v -0.01871848 0.9258294 -0.06660476
v -0.01871838 0.9258293 0.2242105
v -0.004401042 0.8522341 0.2242106
v 0.2213922 0.8324485 0.2242112
v 0.2213922 0.8324485 0.09651864
v 0.2954364 0.770274 0.09651864
v 0.2954364 0.770274 0.2242112
v 0.316662 0.7625032 0.2242112
v 0.316662 0.7625032 0.09651864
v 0.369046 0.7625032 0.09651864
v 0.369046 0.7625032 0.2242112
v 0.3821402 0.7759032 0.2242112
v 0.3821402 0.7759032 0.09651864
v 0.3821402 0.9270789 0.09651864
v 0.3821402 0.9270789 0.2242112
v 0.369046 0.940479 0.2242112
v 0.369046 0.940479 0.09651864
v 0.2072296 0.940479 0.09651864
v 0.2072296 0.940479 0.2242112
v 0.01123921 0.852234 -0.2242115
v -0.003078099 0.9258291 -0.2242115
v -0.003078144 0.9258291 0.06169714
v 0.01123918 0.8522339 0.06169716
v 0.2213922 0.8324485 -0.2242112
v 0.2213922 0.8324485 0.06169736
v 0.2954364 0.770274 -0.2242112
v 0.2954364 0.770274 0.06169736
v 0.316662 0.7625032 -0.2242112
v 0.316662 0.7625032 0.06169736
v 0.369046 0.7625032 -0.2242112
v 0.369046 0.7625032 0.06169736
v 0.3821402 0.7759032 -0.2242112
v 0.3821402 0.7759032 0.06169736
v 0.3821402 0.9270789 -0.2242112
v 0.3821402 0.9270789 0.06169736
v 0.369046 0.940479 -0.2242112
v 0.369046 0.940479 0.06169736
v 0.2072296 0.940479 -0.2242112
v 0.2072296 0.940479 0.06169736
v -0.2056409 0.2386638 0.2345262
v -0.2227158 0.3299182 0.2345262
v -0.2941156 0.3898722 0.2345262
v -0.3121203 0.396464 0.2345262
v -0.3587109 0.396464 0.2345262
v -0.3660309 0.3889733 0.2345262
v -0.2227158 0.3299182 -0.2345262
v -0.2941156 0.3898722 -0.2345262
v -0.3121203 0.396464 -0.2345262
v -0.3587109 0.396464 -0.2345262
v -0.3660309 0.3889733 -0.2345262
v -0.3758887 0.3931517 0.09651864
v -0.3758887 0.241976 0.09651864
v -0.3667633 0.245844 0.09651864
v -0.3667633 0.3892837 0.09651864
v -0.3758887 0.241976 0.06169736
v -0.3758887 0.3931517 0.06169736
v -0.3667633 0.3892837 0.06169736
v -0.3667633 0.245844 0.06169736
v -0.3590143 0.3972135 0.06169736
v -0.3627942 0.4065517 0.06169736
v -0.312211 0.395931 0.06169736
v -0.3104101 0.4065517 0.06169736
v -0.2943762 0.3894016 0.06169736
v -0.2891849 0.3987809 0.06169736
v -0.2231158 0.3295648 0.06169736
v -0.2151404 0.3366065 0.06169736
v -0.2133759 0.3129401 0.06169736
v -0.02164927 0.3168211 0.06169729
v -0.1986063 0.2456277 0.06169736
v -0.00733192 0.243226 0.0616973
v -0.2051105 0.2375161 0.06169736
v -0.2009781 0.228576 0.06169736
v -0.3590143 0.2379142 0.06169736
v -0.3627942 0.228576 0.06169736
v -0.3627942 0.4065517 0.09651864
v -0.3590143 0.3972135 0.09651864
v -0.3104101 0.4065517 0.09651864
v -0.312211 0.395931 0.09651864
v -0.2891849 0.3987809 0.09651864
v -0.2943762 0.3894016 0.09651864
v -0.2151404 0.3366065 0.09651864
v -0.2231158 0.3295648 0.09651864
v 0.01014204 0.3168212 -0.06189205
v -0.213376 0.3129402 -0.06189203
v 0.02445937 0.243226 -0.06189204
v -0.1986064 0.2456278 -0.06189202
v -0.2009781 0.228576 0.09651864
v -0.2051105 0.2375161 0.09651864
v -0.3627942 0.228576 0.09651864
v -0.3590143 0.2379142 0.09651864
v -0.0006698608 0.4452787 0.2275415
v -0.02812683 0.4671731 0.2320223
v -0.000675354 0.4571834 0.2320223
v -0.03342041 0.4571965 0.2275415
v -0.07035369 0.4977434 0.2320223
v -0.07881439 0.4900598 0.2275415
v -0.1010034 0.5500013 0.2320223
v -0.1113574 0.5455456 0.2275415
v -0.1189865 0.6119928 0.2320223
v -0.1301459 0.6103142 0.2275415
v -0.1202698 0.6909338 0.2320223
v -0.1315851 0.6988324 0.2275415
v 0.03209137 0.4572337 0.2275415
v 0.02679169 0.4672064 0.2320223
v 0.07751618 0.4901485 0.2275415
v 0.06905609 0.4978314 0.2320223
v 0.1101114 0.5456713 0.2275415
v 0.09976074 0.550134 0.2320223
v 0.1289319 0.6103142 0.2275415
v 0.1177725 0.6119984 0.2320223
v 0.1303711 0.6988324 0.2275415
v 0.1190561 0.6909338 0.2320223
v -0.0006069946 0.7326844 0.2320223
v -0.0006069946 0.7445309 0.2275415
v -0.000644226 0.5004028 0.2320223
v -0.0006182861 0.5558824 0.2320223
v -0.0006069946 0.6099544 0.2320223
v -0.0006964111 0.3825029 0.2085984
v -0.03967285 0.4135831 0.2289652
v -0.0007043457 0.3994022 0.2289652
v -0.04718689 0.3994209 0.2085984
v -0.09961609 0.4569792 0.2289652
v -0.1116266 0.446072 0.2085984
v -0.143125 0.5311618 0.2289652
v -0.1578229 0.5248369 0.2085984
v -0.168653 0.6191621 0.2289652
v -0.184494 0.6167793 0.2085984
v -0.1704742 0.731223 0.2289652
v -0.1865369 0.7424353 0.2085984
v 0.04580994 0.3994737 0.2085984
v 0.03828674 0.4136304 0.2289652
v 0.110293 0.446198 0.2085984
v 0.09828369 0.4571042 0.2289652
v 0.1565637 0.5250153 0.2085984
v 0.1418701 0.5313504 0.2289652
v 0.18328 0.6167793 0.2085984
v 0.167439 0.6191701 0.2289652
v 0.1853229 0.7424353 0.2085984
v 0.1692609 0.731223 0.2289652
v -0.0006072998 0.79049 0.2289652
v -0.0006072998 0.8073067 0.2085984
v -0.00065979 0.4607543 0.2289652
v -0.0006231689 0.5395105 0.2289652
v -0.0006072998 0.6162685 0.2289652
v -0.0005441284 0.4452787 -0.2278212
v 0.02691284 0.4671731 -0.232302
v -0.0005386352 0.4571834 -0.232302
v 0.03220642 0.4571965 -0.2278212
v 0.06913971 0.4977434 -0.232302
v 0.0776004 0.4900598 -0.2278212
v 0.09978943 0.5500013 -0.232302
v 0.1101434 0.5455456 -0.2278212
v 0.1177725 0.6119928 -0.232302
v 0.1289319 0.6103142 -0.2278212
v 0.1190558 0.6909338 -0.232302
v 0.1303711 0.6988324 -0.2278212
v -0.03330536 0.4572337 -0.2278212
v -0.02800568 0.4672064 -0.232302
v -0.07873016 0.4901485 -0.2278212
v -0.07027008 0.4978314 -0.232302
v -0.1113254 0.5456713 -0.2278212
v -0.1009747 0.550134 -0.232302
v -0.1301459 0.6103142 -0.2278212
v -0.1189865 0.6119984 -0.232302
v -0.1315851 0.6988324 -0.2278212
v -0.1202701 0.6909338 -0.232302
v -0.0006069946 0.7326844 -0.232302
v -0.0006069946 0.7445309 -0.2278212
v -0.0005697632 0.5004028 -0.232302
v -0.0005957031 0.5558824 -0.232302
v -0.0006069946 0.6099544 -0.232302
v -0.0005175781 0.3825029 -0.2088781
v 0.03845886 0.4135831 -0.2292449
v -0.0005096435 0.3994022 -0.2292449
v 0.0459729 0.3994209 -0.2088781
v 0.0984021 0.4569792 -0.2292449
v 0.1104126 0.446072 -0.2088781
v 0.141911 0.5311618 -0.2292449
v 0.1566089 0.5248369 -0.2088781
v 0.167439 0.6191621 -0.2292449
v 0.18328 0.6167793 -0.2088781
v 0.1692602 0.731223 -0.2292449
v 0.1853229 0.7424353 -0.2088781
v -0.04702393 0.3994737 -0.2088781
v -0.03950073 0.4136304 -0.2292449
v -0.111507 0.446198 -0.2088781
v -0.09949768 0.4571042 -0.2292449
v -0.1577777 0.5250153 -0.2088781
v -0.1430841 0.5313504 -0.2292449
v -0.184494 0.6167793 -0.2088781
v -0.168653 0.6191701 -0.2292449
v -0.1865369 0.7424353 -0.2088781
v -0.1704749 0.731223 -0.2292449
v -0.0006066894 0.79049 -0.2292449
v -0.0006066894 0.8073067 -0.2088781
v -0.0005541992 0.4607543 -0.2292449
v -0.0005908203 0.5395105 -0.2292449
v -0.0006066894 0.6162685 -0.2292449
v -0.3627942 0.228576 0.2242112
v -0.2009781 0.228576 0.2242112
v 0.02445942 0.2432259 0.2242113
v -0.3758887 0.241976 0.2242112
v 0.0101421 0.3168211 0.2242113
v -0.3758887 0.3931517 0.2242112
v -0.2151404 0.3366065 0.2242112
v -0.3627942 0.4065517 0.2242112
v -0.2891849 0.3987809 0.2242112
v -0.3104101 0.4065517 0.2242112
v 0.211362 0.9315388 0.09651864
v 0.3652661 0.9311408 0.09651864
v 0.2048576 0.9234274 -0.06660398
v 0.3730151 0.923211 0.09651864
v 0.2196275 0.8561149 -0.06660396
v 0.3730151 0.7797711 0.09651864
v 0.2293677 0.8394901 0.09651864
v 0.3652661 0.7718414 0.09651864
v 0.3006277 0.7796534 0.09651864
v 0.3184625 0.7731239 0.09651864
v 0.3652661 0.9311408 0.06169736
v 0.211362 0.9315388 0.06169736
v 0.3730151 0.923211 0.06169736
v 0.2048578 0.9234273 0.06169736
v 0.3730151 0.7797711 0.06169736
v 0.2196277 0.8561149 0.06169736
v 0.3652661 0.7718414 0.06169736
v 0.2293677 0.8394901 0.06169736
v 0.3184625 0.7731239 0.06169736
v 0.3006277 0.7796534 0.06169736
v 0.3652661 0.2379142 0.09651864
v 0.211362 0.2375161 0.09651864
v 0.2048577 0.2456277 -0.06189213
v 0.3730151 0.245844 0.09651864
v 0.2196276 0.3129401 -0.06189212
v 0.3730151 0.3892837 0.09651864
v 0.2293677 0.3295648 0.09651864
v 0.3652661 0.3972135 0.09651864
v 0.3006277 0.3894016 0.09651864
v 0.3184625 0.395931 0.09651864
v 0.3652661 0.2379142 0.06169736
v 0.211362 0.2375161 0.06169736
v 0.3730151 0.245844 0.06169736
v 0.2048578 0.2456277 0.06169736
v 0.3730151 0.3892837 0.06169736
v 0.2196277 0.3129401 0.06169736
v 0.3652661 0.3972135 0.06169736
v 0.2293677 0.3295648 0.06169736
v 0.3184625 0.395931 0.06169736
v 0.3006277 0.3894016 0.06169736
v 0.2808423 0.3303011 -0.2287028
v 0.2684503 0.3003826 -0.2287028
v 0.2716705 0.3003826 -0.2426356
v 0.2831201 0.3280236 -0.2426356
v 0.3107611 0.3003826 -0.2651108
v 0.3107611 0.3426937 -0.2287028
v 0.2831201 0.2727417 -0.2426356
v 0.2808423 0.2704642 -0.2287028
v 0.3107611 0.339473 -0.2426356
v 0.3406793 0.3303011 -0.2287028
v 0.3107611 0.2612925 -0.2426356
v 0.3107611 0.2580718 -0.2287028
v 0.3384021 0.3280236 -0.2426356
v 0.3530722 0.3003826 -0.2287028
v 0.3384021 0.2727417 -0.2426356
v 0.3406793 0.2704642 -0.2287028
v 0.3498511 0.3003826 -0.2426356
v -0.3627942 0.228576 -0.2242112
v -0.3758887 0.241976 -0.2242112
v -0.2009781 0.228576 -0.2242112
v -0.3758887 0.3931517 -0.2242112
v -0.007331865 0.2432261 -0.2242114
v -0.3627942 0.4065517 -0.2242112
v -0.02164919 0.3168212 -0.2242114
v -0.3104101 0.4065517 -0.2242112
v -0.2151404 0.3366065 -0.2242112
v -0.2891849 0.3987809 -0.2242112
v -0.2745911 0.8387539 0.2287029
v -0.2654193 0.8686723 0.2426356
v -0.2621985 0.8686723 0.2287029
v -0.2768689 0.8410314 0.2426356
v -0.3045096 0.8686723 0.2651108
v -0.3045096 0.8263614 0.2287029
v -0.2768689 0.8963133 0.2426356
v -0.2745911 0.8985907 0.2287029
v -0.3045096 0.829582 0.2426356
v -0.3344281 0.8387539 0.2287029
v -0.3045096 0.9077625 0.2426356
v -0.3045096 0.9109833 0.2287029
v -0.3321506 0.8410314 0.2426356
v -0.3468207 0.8686723 0.2287029
v -0.3321506 0.8963133 0.2426356
v -0.3344281 0.8985907 0.2287029
v -0.3435999 0.8686723 0.2426356
v -0.3758887 0.9270789 -0.2242112
v -0.3627942 0.940479 -0.2242112
v -0.2009781 0.940479 -0.2242112
v -0.3758887 0.7759032 -0.2242112
v -0.002191517 0.9258293 -0.2242114
v -0.3627942 0.7625032 -0.2242112
v -0.01650882 0.8522342 -0.2242114
v -0.3104101 0.7625032 -0.2242112
v -0.2151404 0.8324485 -0.2242112
v -0.2891849 0.770274 -0.2242112
v -0.2745911 0.3303011 0.2287029
v -0.2621985 0.3003826 0.2287029
v -0.2654193 0.3003826 0.2426356
v -0.2768689 0.3280236 0.2426356
v -0.3045096 0.3003826 0.2651108
v -0.3045096 0.3426937 0.2287029
v -0.2768689 0.2727417 0.2426356
v -0.2745911 0.2704642 0.2287029
v -0.3045096 0.339473 0.2426356
v -0.3344281 0.3303011 0.2287029
v -0.3045096 0.2612925 0.2426356
v -0.3045096 0.2580718 0.2287029
v -0.3321506 0.3280236 0.2426356
v -0.3468207 0.3003826 0.2287029
v -0.3321506 0.2727417 0.2426356
v -0.3344281 0.2704642 0.2287029
v -0.3435999 0.3003826 0.2426356
v -0.2745911 0.3303011 -0.2287028
v -0.2654193 0.3003826 -0.2426356
v -0.2621985 0.3003826 -0.2287028
v -0.2768689 0.3280236 -0.2426356
v -0.3045096 0.3003826 -0.2651108
v -0.3045096 0.3426937 -0.2287028
v -0.2768689 0.2727417 -0.2426356
v -0.2745911 0.2704642 -0.2287028
v -0.3045096 0.339473 -0.2426356
v -0.3344281 0.3303011 -0.2287028
v -0.3045096 0.2612925 -0.2426356
v -0.3045096 0.2580718 -0.2287028
v -0.3321506 0.3280236 -0.2426356
v -0.3468207 0.3003826 -0.2287028
v -0.3321506 0.2727417 -0.2426356
v -0.3344281 0.2704642 -0.2287028
v -0.3435999 0.3003826 -0.2426356
v 0.2808423 0.3303011 0.2287029
v 0.2716705 0.3003826 0.2426356
v 0.2684503 0.3003826 0.2287029
v 0.2831201 0.3280236 0.2426356
v 0.3107611 0.3003826 0.2651108
v 0.3107611 0.3426937 0.2287029
v 0.2831201 0.2727417 0.2426356
v 0.2808423 0.2704642 0.2287029
v 0.3107611 0.339473 0.2426356
v 0.3406793 0.3303011 0.2287029
v 0.3107611 0.2612925 0.2426356
v 0.3107611 0.2580718 0.2287029
v 0.3384021 0.3280236 0.2426356
v 0.3530722 0.3003826 0.2287029
v 0.3384021 0.2727417 0.2426356
v 0.3406793 0.2704642 0.2287029
v 0.3498511 0.3003826 0.2426356
v -0.2745911 0.8387539 -0.2287028
v -0.2621985 0.8686723 -0.2287028
v -0.2654193 0.8686723 -0.2426356
v -0.2768689 0.8410314 -0.2426356
v -0.3045096 0.8686723 -0.2651108
v -0.3045096 0.8263614 -0.2287028
v -0.2768689 0.8963133 -0.2426356
v -0.2745911 0.8985907 -0.2287028
v -0.3045096 0.829582 -0.2426356
v -0.3344281 0.8387539 -0.2287028
v -0.3045096 0.9077625 -0.2426356
v -0.3045096 0.9109833 -0.2287028
v -0.3321506 0.8410314 -0.2426356
v -0.3468207 0.8686723 -0.2287028
v -0.3321506 0.8963133 -0.2426356
v -0.3344281 0.8985907 -0.2287028
v -0.3435999 0.8686723 -0.2426356
v 0.2808423 0.8387539 0.2287029
v 0.2684503 0.8686723 0.2287029
v 0.2716705 0.8686723 0.2426356
v 0.2831201 0.8410314 0.2426356
v 0.3107611 0.8686723 0.2651108
v 0.3107611 0.8263614 0.2287029
v 0.2831201 0.8963133 0.2426356
v 0.2808423 0.8985907 0.2287029
v 0.3107611 0.829582 0.2426356
v 0.3406793 0.8387539 0.2287029
v 0.3107611 0.9077625 0.2426356
v 0.3107611 0.9109833 0.2287029
v 0.3384021 0.8410314 0.2426356
v 0.3530722 0.8686723 0.2287029
v 0.3384021 0.8963133 0.2426356
v 0.3406793 0.8985907 0.2287029
v 0.3498511 0.8686723 0.2426356
v 0.2808423 0.8387539 -0.2287028
v 0.2716705 0.8686723 -0.2426356
v 0.2684503 0.8686723 -0.2287028
v 0.2831201 0.8410314 -0.2426356
v 0.3107611 0.8686723 -0.2651108
v 0.3107611 0.8263614 -0.2287028
v 0.2831201 0.8963133 -0.2426356
v 0.2808423 0.8985907 -0.2287028
v 0.3107611 0.829582 -0.2426356
v 0.3406793 0.8387539 -0.2287028
v 0.3107611 0.9077625 -0.2426356
v 0.3107611 0.9109833 -0.2287028
v 0.3384021 0.8410314 -0.2426356
v 0.3530722 0.8686723 -0.2287028
v 0.3384021 0.8963133 -0.2426356
v 0.3406793 0.8985907 -0.2287028
v 0.3498511 0.8686723 -0.2426356

vt 0.008564847 0.7073432
vt 0.3535869 0.9633461
vt 0.008251701 0.6409276
vt 0.3497365 0.9171986
vt 0.3528003 0.9543793

vn -0.0163288 -0.3911011 0.9202029
vn -0.02273578 -0.006832954 0.9997181
vn 0 0 1
vn 0.01623528 0.3910845 0.9202116
vn 0.02260386 0.006793479 0.9997214
vn 0.0973789 -0.1024524 0.98996
vn -0.2064098 0.4283027 -0.8797453
vn -0.09109634 0.1234678 -0.9881585
vn -1.632219E-07 -2.591495E-07 -1
vn 0.09261729 -0.1232585 -0.9880432
vn 0.02673502 0.01041158 -0.9995883
vn 0.09758764 0.1024843 0.9899362
vn 0.02289102 -0.006878747 0.9997143
vn -0.1411805 -0.3342438 0.9318526
vn -0.3399131 -0.1380645 0.9302673
vn 0.2064153 -0.4283008 -0.8797449
vn -0.1411811 -0.3342443 -0.9318523
vn -0.3399137 -0.1380651 -0.930267
vn -0.1328343 -0.1328329 0.9821967
vn 0 -0.7087871 0.7054225
vn 0.1328343 -0.1328329 0.9821967
vn 0.1328343 0.1328331 0.9821967
vn 0.7087845 0 0.7054251
vn -0.1328343 0.1328331 0.9821967
vn -0.7087851 0 0.7054245
vn 0 0.7087868 0.7054228
vn 0 -0.9810162 0.1939259
vn 0 -1 0
vn -0.9810152 0 0.1939309
vn -1 0 0
vn 0.981015 0 0.1939317
vn 1 0 0
vn 0 0.981016 0.1939267
vn 0 1 0
vn -0.9810152 0 -0.1939309
vn -0.7087851 0 -0.7054245
vn -0.1328343 -0.1328329 -0.9821967
vn -0.1328343 0.1328331 -0.9821967
vn 0.1328343 -0.1328329 -0.9821967
vn 0 -0.7087871 -0.7054225
vn 0.1328343 0.1328331 -0.9821967
vn 0.7087845 0 -0.7054251
vn 0 0.7087868 -0.7054228
vn 0 0.981016 -0.1939267
vn 0.981015 0 -0.1939317
vn 0 -0.9810162 -0.1939259
vn -0.09066895 -0.1235269 -0.9881904
vn -0.02401526 0.009354197 -0.9996678
vn -0.1923974 0.356628 -0.9142208
vn -0.1925799 0.3324774 -0.9232399
vn -0.09747693 0.1024668 0.9899489
vn -0.390147 0.3291622 0.8599055
vn -0.1925785 0.3324769 0.9232403
vn -0.06691636 0.3771617 0.9237269
vn 0.1411831 0.3342451 0.9318517
vn 0.4524983 0.1837936 0.8726198
vn 0.3399186 -0.1380648 0.9302652
vn 0.1411806 -0.334244 0.9318525
vn -0.06691582 0.3771617 -0.9237269
vn 0.1411812 0.334245 -0.931852
vn 0.4524978 0.1837911 -0.8726205
vn 0.3399196 -0.1380671 -0.9302645
vn 0.141183 -0.3342449 -0.9318517
vn -0.2064069 -0.4283015 -0.8797466
vn -0.6689771 0.743283 2.498849E-07
vn -0.4607848 -0.4733719 0.7507306
vn -0.7917665 -0.610824 -9.809701E-08
vn -0.4185696 0.5829479 0.6963988
vn -0.4420322 0.7839963 0.4358411
vn -0.382725 0.9238623 0
vn -0.5009669 0.8654664 0
vn -0.4632662 0.8001137 0.3810546
vn -0.1613631 0.9098604 0.3822513
vn -0.1745764 0.9846436 0
vn 0.3880086 0.9216557 0
vn 0.3555031 0.8432685 0.4031326
vn 0.8494331 0.3456554 0.3987302
vn 0.9260725 0.3773455 0
vn 0.9260727 -0.3773453 0
vn 0.8494338 -0.3456542 0.3987296
vn 0.3555022 -0.8432687 0.4031328
vn 0.3880089 -0.9216557 0
vn -0.03222114 -0.9994807 -7.611504E-08
vn -0.02970892 -0.9241567 0.3808565
vn -0.4404785 0.6018377 -0.6661608
vn -0.6706865 0.7417409 -5.656241E-08
vn -0.7928089 -0.6094704 -1.904978E-07
vn -0.4460398 -0.5158293 -0.7314155
vn -0.3525594 0.8662251 -0.3540566
vn -0.3848512 0.9229786 0
vn -0.4632664 0.8001133 -0.3810552
vn -0.1613628 0.9098607 -0.3822508
vn 0.3555022 0.8432691 -0.403132
vn 0.8494337 0.3456545 -0.3987295
vn 0.8494331 -0.3456551 -0.3987304
vn 0.3555032 -0.843268 -0.4031335
vn -0.1034717 -0.9029507 -0.4171015
vn -0.0339285 -0.9994242 -3.990559E-08
vn 0.1613652 -0.9098602 0.382251
vn 0.06691675 -0.3771616 0.9237269
vn 0.1925809 -0.3324783 0.9232393
vn 0.4632677 -0.800113 0.381054
vn 0.3901404 -0.3291625 0.8599085
vn 0.441882 -0.7840607 0.4358774
vn 0.5009682 -0.8654656 0
vn 0.3824911 -0.9239591 0
vn 0.1745789 -0.9846432 0
vn 0.6687894 -0.743452 -4.543448E-07
vn -0.3880028 -0.9216582 0
vn 0.4182755 -0.5830255 0.6965105
vn 0.4604962 0.4734555 0.750855
vn 0.7916509 0.6109737 7.651359E-08
vn 0.0320323 0.9994869 1.474288E-07
vn 0.02953613 0.924171 0.3808353
vn -0.1411831 0.3342446 0.9318519
vn -0.3555 0.8432701 0.4031318
vn -0.3880049 0.9216573 0
vn -0.3399146 0.138064 0.9302669
vn -0.926071 0.3773492 0
vn -0.8494293 0.3456572 0.3987365
vn -0.4524902 -0.1837901 0.8726247
vn -0.8494285 -0.3456588 0.398737
vn -0.9260702 -0.3773513 0
vn -0.3554975 -0.8432708 0.4031326
vn 0.09212223 0.1233264 -0.988081
vn 0.026042 -0.01014233 -0.9996094
vn 0.1940939 -0.3563143 -0.9139845
vn 0.1925802 -0.3324775 -0.9232397
vn 0.0669166 -0.3771619 -0.9237267
vn -0.4524906 -0.1837906 -0.8726244
vn -0.3399149 0.1380632 -0.9302669
vn -0.1411823 0.3342449 -0.9318519
vn 0.2064183 0.4283019 -0.8797437
vn -0.2507531 -0.2840072 -0.9254528
vn -0.1487134 -0.4698659 -0.8701209
vn -0.01148312 -0.6698331 -0.7424229
vn -0.007117469 0.6692483 -0.7430047
vn -0.3345878 0.5158085 -0.7886651
vn -0.6233066 0.2881096 -0.7269676
vn -0.02461162 -0.009586107 -0.9996511
vn 0.3399207 0.1380653 -0.9302644
vn -0.1928976 -0.3565357 -0.9141514
vn 0.4524978 -0.1837909 -0.8726206
vn -0.1925798 -0.3324766 -0.9232401
vn -0.06691589 -0.3771614 -0.923727
vn 0.3399201 0.1380642 0.9302648
vn -0.01640306 0.3911184 0.9201942
vn -0.02284091 0.006864242 0.9997156
vn -0.09755296 -0.1024786 0.9899402
vn 0.452498 -0.1837928 0.8726201
vn -0.390146 -0.329162 0.8599061
vn -0.1925785 -0.3324764 0.9232405
vn -0.06691664 -0.3771616 0.9237269
vn -0.6691239 -0.7431508 -7.91218E-08
vn -0.791856 0.6107078 5.140694E-07
vn -0.4610118 0.4733082 0.7506314
vn -0.4188019 -0.5828871 0.69631
vn -0.4421466 -0.7839454 0.4358164
vn -0.3829083 -0.9237863 0
vn -0.500967 -0.8654664 0
vn -0.4632661 -0.8001133 0.3810554
vn -0.1613632 -0.9098603 0.3822514
vn -0.1745764 -0.9846436 0
vn -0.03236725 0.999476 1.077074E-07
vn -0.02984381 0.9241473 0.3808689
vn -0.4419229 -0.6013029 -0.6656869
vn -0.4472615 0.515414 -0.730962
vn -0.7933196 0.6088054 -1.13724E-07
vn -0.6715236 -0.7409832 -1.46155E-07
vn -0.3535897 -0.865747 -0.3541984
vn -0.3858931 -0.9225435 0
vn -0.4632665 -0.800113 -0.3810556
vn -0.1613628 -0.9098607 -0.3822508
vn -0.1040643 0.9028929 -0.4170789
vn -0.03476642 0.9993955 -2.717966E-09
vn 0.01643875 -0.3911231 0.9201916
vn 0.3901414 0.3291627 0.8599079
vn 0.1925809 0.3324787 0.9232391
vn 0.06691647 0.3771616 0.9237269
vn -0.4524904 0.1837909 0.8726243
vn 0.1946728 0.3562097 -0.9139022
vn 0.1925803 0.3324783 -0.9232394
vn 0.06691653 0.3771621 -0.9237267
vn -0.4524907 0.1837908 -0.8726243
vn -0.2480324 0.2809239 -0.9271255
vn -0.1472502 0.4675632 -0.8716089
vn -0.01161093 0.6687013 -0.7434405
vn -0.007193537 -0.6681016 -0.7440352
vn -0.3341644 -0.5150032 -0.7893705
vn -0.6227469 -0.2878533 -0.7275485
vn 0.0001574005 -0.3522644 0.9359005
vn -0.1170286 -0.2205667 0.9683257
vn 5.257502E-05 -0.1184783 0.9929566
vn -0.172846 -0.3257673 0.929516
vn -0.109725 -0.09964816 0.9889543
vn -0.2702084 -0.2453937 0.9310045
vn -0.172648 -0.07429855 0.9821774
vn -0.3393161 -0.1460232 0.9292695
vn -0.1856594 -0.02792593 0.9822173
vn -0.3649299 -0.05489125 0.9294155
vn -0.1693193 0.1181952 0.9784482
vn -0.2532399 0.1767779 0.9511147
vn 0.1730677 -0.3256658 0.9295103
vn 0.1171783 -0.2204974 0.9683234
vn 0.2702308 -0.2454107 0.9309935
vn 0.1097345 -0.09965536 0.9889525
vn 0.3392221 -0.1462612 0.9292664
vn 0.1726017 -0.07442001 0.9821763
vn 0.3648799 -0.05506629 0.9294247
vn 0.1856343 -0.02801554 0.9822195
vn 0.2532438 0.176779 0.9511135
vn 0.1693216 0.1181953 0.9784478
vn -5.892071E-08 0.1791411 0.9838234
vn 1.351282E-07 0.3537802 0.9353286
vn 0.0003419585 -0.7695752 0.6385562
vn -0.3682846 -0.6941109 0.6185278
vn -0.5790228 -0.5258498 0.6230687
vn -0.7222997 -0.3108391 0.6177882
vn -0.7772581 -0.1169101 0.6182249
vn -0.7885505 -0.01281796 0.6148365
vn 0.3687437 -0.6938765 0.6185172
vn 0.5790484 -0.5258654 0.6230317
vn 0.7220875 -0.3113381 0.6177849
vn 0.7771764 -0.1172875 0.6182559
vn 0.7885551 -0.01282063 0.6148304
vn 0.2598042 0.7446353 0.6148334
vn -1.126466E-06 0.7711118 0.6366997
vn -0.2598048 0.744634 0.6148346
vn -0.000157393 -0.3522645 -0.9359005
vn 0.1170286 -0.2205667 -0.9683257
vn -5.257502E-05 -0.1184783 -0.9929566
vn 0.172846 -0.3257673 -0.929516
vn 0.109725 -0.09964819 -0.9889543
vn 0.2702084 -0.2453937 -0.9310045
vn 0.172648 -0.07429855 -0.9821774
vn 0.3393162 -0.1460232 -0.9292695
vn 0.1856595 -0.02792593 -0.9822173
vn 0.36493 -0.05489128 -0.9294154
vn 0.1693193 0.1181952 -0.9784482
vn 0.2532398 0.1767778 -0.9511147
vn -0.1730677 -0.3256658 -0.9295103
vn -0.1171783 -0.2204974 -0.9683234
vn -0.2702309 -0.2454108 -0.9309934
vn -0.1097345 -0.09965539 -0.9889525
vn -0.3392221 -0.1462612 -0.9292664
vn -0.1726017 -0.07442001 -0.9821763
vn -0.3648798 -0.05506626 -0.9294248
vn -0.1856342 -0.02801551 -0.9822195
vn -0.2532439 0.1767791 -0.9511134
vn -0.1693216 0.1181954 -0.9784478
vn 4.941737E-08 0.1791411 -0.9838234
vn -1.426354E-07 0.3537802 -0.9353286
vn -0.0003419275 -0.7695754 -0.6385559
vn 0.3682848 -0.694111 -0.6185275
vn 0.5790228 -0.52585 -0.6230685
vn 0.7223001 -0.3108392 -0.6177876
vn 0.7772583 -0.1169101 -0.6182245
vn 0.7885507 -0.01281796 -0.6148362
vn -0.3687438 -0.6938766 -0.6185169
vn -0.5790485 -0.5258656 -0.6230315
vn -0.7220877 -0.3113382 -0.6177847
vn -0.7771767 -0.1172875 -0.6182557
vn -0.7885554 -0.01282064 -0.6148301
vn -0.2598042 0.7446355 -0.6148331
vn 1.141897E-06 0.7711121 -0.6366994
vn 0.2598049 0.7446342 -0.6148344
vn 0.03244101 -0.9994736 -8.10638E-08
vn 0.02991079 -0.9241413 0.3808782
vn 0.461123 -0.4732755 0.7505837
vn 0.7919011 -0.6106495 -3.403393E-07
vn 0.6691967 0.7430853 2.646651E-09
vn 0.4189147 0.5828569 0.6962674
vn 0.4421994 0.7839206 0.4358074
vn 0.3829973 0.9237494 0
vn 0.5009682 0.8654657 0
vn -0.355498 0.8432705 0.4031326
vn 0.4632678 0.8001133 0.3810533
vn 0.1613651 0.9098603 0.3822508
vn 0.1745789 0.9846432 0
vn 0.6233063 0.2881084 -0.7269682
vn 0.3346219 0.5158005 -0.7886559
vn 0.007192597 0.6692469 -0.7430053
vn 0.0116052 -0.6698272 -0.7424263
vn 0.1495239 -0.4708424 -0.8694538
vn 0.252206 -0.2856523 -0.9245512
vn 0.622747 -0.2878523 -0.7275488
vn 0.334141 -0.5150077 -0.7893775
vn 0.007144591 -0.6681029 -0.7440346
vn 0.01153137 0.668705 -0.7434383
vn 0.1467196 0.4669238 -0.872041
vn 0.2470814 0.2798458 -0.9277052
vn -0.6889374 0.6889378 -0.2252331
vn -0.9743119 -6.748903E-06 -0.225203
vn -0.875513 -6.616421E-06 -0.4831946
vn -0.5629225 0.5629286 -0.6051692
vn 0.03364391 -0.03364336 -0.9988675
vn 9.480637E-07 0.9743075 -0.2252216
vn -0.5629276 -0.562929 -0.6051639
vn -0.6889402 -0.6889322 -0.2252415
vn -1.205049E-06 0.8755088 -0.4832021
vn 0.6889389 0.6889415 -0.2252173
vn 9.035739E-07 -0.7961023 -0.6051619
vn 3.342321E-06 -0.9743078 -0.2252206
vn 0.5629308 0.5629257 -0.6051641
vn 0.9743032 -3.985086E-06 -0.2252403
vn 0.6190812 -0.6190765 -0.4832006
vn 0.6889383 -0.6889396 -0.2252246
vn 0.7960988 -2.889719E-06 -0.6051666
vn 0.4315231 -0.9021019 0
vn -0.3891937 -0.9211559 0
vn -0.002582659 -0.9999967 5.932173E-07
vn -0.9767644 -0.2143159 1.236715E-06
vn -0.9736816 0.2279126 1.021293E-06
vn -0.9312447 -0.3643943 5.158101E-07
vn -0.375342 0.9268864 0
vn 0.6430543 0.7658206 1.812601E-07
vn 0.7641057 0.6450911 0
vn 0.1880473 0.98216 0
vn -0.3554981 -0.8432701 -0.4031335
vn -0.8494287 -0.3456585 -0.3987369
vn 0.1061709 -0.9026818 -0.4170052
vn 0.03774595 -0.9992874 -4.807263E-08
vn -0.8494288 0.3456587 -0.3987366
vn 0.451596 -0.5139282 -0.7293414
vn 0.7951313 -0.6064373 5.37692E-08
vn -0.355498 0.8432706 -0.4031326
vn 0.4470354 0.5993931 -0.6639934
vn 0.6744927 0.7382815 2.568655E-07
vn 0.161365 0.9098603 -0.3822508
vn 0.3572442 0.8640432 -0.3546912
vn 0.3895926 0.9209873 0
vn 0.463268 0.8001138 -0.3810522
vn -0.4315073 0.9021095 0
vn 0.3891946 0.9211556 0
vn 0.002591979 0.9999967 -7.436652E-07
vn 0.9767613 0.2143299 -1.678953E-06
vn 0.9736816 -0.2279123 -1.338769E-06
vn 0.9312445 0.364395 -8.076344E-07
vn 0.3753408 -0.9268869 0
vn -0.6430548 -0.7658201 -3.335248E-07
vn -0.7641065 -0.6450901 0
vn -0.1880473 -0.98216 0
vn 0.6889333 -0.688939 0.2252422
vn 0.8755027 2.307774E-06 0.4832133
vn 0.9743041 2.217506E-06 0.2252364
vn 0.5629242 -0.5629283 0.6051677
vn 2.313918E-06 -0.9743073 0.2252227
vn 0.5629255 0.5629269 0.6051679
vn 0.6889356 0.6889361 0.225244
vn 3.296829E-06 -0.8755079 0.4832038
vn -0.6889382 -0.6889381 0.2252301
vn 1.250517E-07 0.8755056 0.483208
vn -7.873742E-07 0.9743064 0.2252266
vn -0.5629284 -0.5629265 0.6051655
vn -0.9743053 -3.85653E-07 0.2252315
vn -0.5629269 0.5629283 0.6051652
vn -0.6889364 0.6889389 0.2252332
vn -0.8755046 -3.865234E-07 0.4832098
vn 0.4315162 0.9021052 0
vn -0.3891946 0.9211556 0
vn -0.002585479 0.9999967 1.077271E-07
vn -0.9767637 0.2143191 1.767746E-06
vn -0.9736811 -0.2279149 1.011788E-06
vn -0.9312445 0.364395 1.661653E-06
vn -0.3753408 -0.9268869 0
vn 0.6430547 -0.7658202 8.361024E-07
vn 0.7641058 -0.6450909 0
vn 0.1880476 -0.9821599 0
vn 0.1054846 0.9027518 -0.4170277
vn 0.036773 0.9993236 1.916558E-09
vn 0.450183 0.5144147 -0.7298717
vn 0.7945403 0.6072114 5.217989E-08
vn 0.4453723 -0.6000171 -0.6645472
vn 0.673526 -0.7391636 -3.502686E-08
vn 0.161365 -0.9098603 -0.3822508
vn 0.3560539 -0.8645995 -0.3545326
vn 0.3883867 -0.9214965 0
vn 0.4632681 -0.8001135 -0.3810525
vn -0.4315158 -0.9021053 0
vn 0.3891937 -0.9211559 0
vn 0.002587971 -0.9999967 -1.220245E-07
vn 0.9767623 -0.2143254 -7.883873E-07
vn 0.9736822 0.22791 -4.790735E-07
vn 0.9312443 -0.3643955 -6.481281E-07
vn 0.375342 0.9268864 0
vn -0.6430553 0.7658197 -3.299582E-07
vn -0.7641064 0.6450902 0
vn -0.188047 0.98216 0
vn 6.137541E-07 -0.1142395 0.9934533
vn 5.455541E-07 -0.7961019 0.6051626
vn 0.8755031 -2.705667E-06 -0.4832125
vn -0.03364148 -0.03364288 -0.9988676
vn 0.5629257 -0.5629283 -0.6051664
vn -0.6190747 -0.6190774 -0.4832077
vn -0.7961005 -1.321264E-07 -0.6051645
vn 0.03364391 -0.03364336 0.9988675
vn 0.6190808 -0.6190761 0.4832015
vn 0.7960984 -2.881194E-06 0.6051673
vn 3.29683E-06 -0.8755085 -0.4832028
vn 0.03364383 0.03364279 0.9988675
vn 1.052748E-06 0.7961009 0.6051639
vn 0.6190808 0.6190751 0.4832028
vn 0.03364383 0.03364279 -0.9988675
vn 1.069797E-06 0.7961015 -0.6051632
vn 0.6190811 0.6190755 -0.4832019

usemtl M_Unlit_GradientAtlas
f 7/1/6 5/1/5 6/1/3
f 13/1/9 12/1/11 11/1/10
f 16/1/13 15/1/12 14/1/3
f 14/1/3 18/1/15 17/1/14
f 13/1/9 20/1/17 21/1/18
f 96/1/48 95/1/9 94/1/47
f 99/1/51 2/1/2 3/1/3
f 102/1/54 101/1/53 3/1/3
f 102/1/54 3/1/3 103/1/55
f 105/1/57 3/1/3 106/1/58
f 98/1/50 107/1/59 95/1/9
f 107/1/59 108/1/60 95/1/9
f 111/1/63 95/1/9 110/1/62
f 182/1/126 181/1/9 180/1/125
f 154/1/100 155/1/101 6/1/3
f 154/1/100 6/1/3 178/1/14
f 172/1/118 6/1/3 169/1/115
f 184/1/128 185/1/129 181/1/9
f 185/1/129 186/1/17 181/1/9
f 189/1/132 181/1/9 188/1/131
f 10/1/9 221/1/140 9/1/8
f 10/1/9 222/1/60 223/1/141
f 228/1/145 226/1/144 10/1/9
f 227/1/63 228/1/145 10/1/9
f 231/1/3 230/1/146 229/1/55
f 233/1/148 234/1/149 231/1/3
f 231/1/3 239/1/153 237/1/58
f 238/1/152 239/1/153 231/1/3
f 282/1/178 283/1/179 14/1/3
f 14/1/3 283/1/179 284/1/115
f 288/1/183 287/1/182 13/1/9
f 289/1/132 288/1/183 13/1/9
f 344/2/204 346/2/206 333/2/193
f 346/2/206 355/2/3 333/2/193
f 335/2/195 332/2/192 333/2/193
f 355/2/3 335/2/195 333/2/193
f 371/2/3 373/2/3 360/2/3
f 373/2/3 382/2/3 360/2/3
f 362/2/3 359/2/3 360/2/3
f 382/2/3 362/2/3 360/2/3
f 398/2/242 400/2/244 387/2/231
f 400/2/244 409/2/9 387/2/231
f 389/2/233 386/2/230 387/2/231
f 409/2/9 389/2/233 387/2/231
f 425/2/9 427/2/9 414/2/9
f 427/2/9 436/2/9 414/2/9
f 416/2/9 413/2/9 414/2/9
f 436/2/9 416/2/9 414/2/9
f 495/4/298 493/4/296 499/4/302
f 505/4/308 493/4/296 501/4/304
f 549/5/346 547/5/389 553/5/390
f 553/5/390 547/5/389 557/5/354
f 564/4/392 566/4/393 570/4/302
f 564/4/392 576/4/395 572/4/295
f 581/5/396 583/5/354 587/5/390
f 581/5/396 593/5/398 589/5/348
f 617/5/356 615/5/400 621/5/401
f 627/5/398 615/5/400 623/5/346
f 632/4/403 634/4/295 638/4/404
f 632/4/403 644/4/308 640/4/393
f 3/1/3 2/1/2 1/1/1
f 1/1/1 106/1/58 3/1/3
f 6/1/3 5/1/5 4/1/4
f 4/1/4 169/1/115 6/1/3
f 10/1/9 9/1/8 8/1/7
f 8/1/7 222/1/60 10/1/9
f 13/1/9 11/1/10 19/1/16
f 19/1/16 20/1/17 13/1/9
f 22/2/19 24/2/20 23/2/20
f 23/2/20 25/2/21 22/2/19
f 22/2/19 25/2/21 26/2/22
f 26/2/22 29/2/24 22/2/19
f 27/2/23 26/2/22 25/2/21
f 25/2/21 28/2/23 27/2/23
f 30/2/25 22/2/19 29/2/24
f 29/2/24 31/2/25 30/2/25
f 32/2/26 29/2/24 26/2/22
f 26/2/22 33/2/26 32/2/26
f 34/2/27 23/2/20 24/2/20
f 24/2/20 35/2/27 34/2/27
f 34/2/27 35/2/27 36/2/28
f 36/2/28 37/2/28 34/2/27
f 38/2/29 30/2/25 31/2/25
f 31/2/25 39/2/29 38/2/29
f 38/2/29 39/2/29 40/2/30
f 40/2/30 41/2/30 38/2/29
f 42/2/31 27/2/23 28/2/23
f 28/2/23 43/2/31 42/2/31
f 44/2/32 42/2/31 43/2/31
f 43/2/31 45/2/32 44/2/32
f 46/2/33 32/2/26 33/2/26
f 33/2/26 47/2/33 46/2/33
f 46/2/33 47/2/33 48/2/34
f 48/2/34 49/2/34 46/2/33
f 50/2/35 52/2/36 51/2/36
f 51/2/36 53/2/35 50/2/35
f 54/2/30 50/2/35 53/2/35
f 53/2/35 55/2/30 54/2/30
f 56/2/37 51/2/36 52/2/36
f 52/2/36 57/2/38 56/2/37
f 58/2/39 56/2/37 57/2/38
f 57/2/38 61/2/41 58/2/39
f 59/2/40 56/2/37 58/2/39
f 58/2/39 60/2/40 59/2/40
f 62/2/42 58/2/39 61/2/41
f 61/2/41 63/2/42 62/2/42
f 64/2/43 61/2/41 57/2/38
f 57/2/38 65/2/43 64/2/43
f 66/2/44 64/2/43 65/2/43
f 65/2/43 67/2/44 66/2/44
f 66/2/44 67/2/44 68/2/34
f 68/2/34 69/2/34 66/2/44
f 70/2/45 62/2/42 63/2/42
f 63/2/42 71/2/45 70/2/45
f 70/2/45 71/2/45 72/2/32
f 72/2/32 73/2/32 70/2/45
f 74/2/46 59/2/40 60/2/40
f 60/2/40 75/2/46 74/2/46
f 74/2/46 75/2/46 76/2/28
f 76/2/28 77/2/28 74/2/46
f 80/2/28 79/2/28 78/2/28
f 78/2/28 81/2/28 80/2/28
f 84/2/32 83/2/32 82/2/32
f 82/2/32 85/2/32 84/2/32
f 88/2/34 87/2/34 86/2/34
f 86/2/34 89/2/34 88/2/34
f 92/2/30 91/2/30 90/2/30
f 90/2/30 93/2/30 92/2/30
f 80/2/3 81/2/3 77/2/3
f 77/2/3 76/2/3 80/2/3
f 78/2/9 79/2/9 37/2/9
f 37/2/9 36/2/9 78/2/9
f 84/2/3 85/2/3 73/2/3
f 73/2/3 72/2/3 84/2/3
f 82/2/9 83/2/9 44/2/9
f 44/2/9 45/2/9 82/2/9
f 88/2/3 89/2/3 69/2/3
f 69/2/3 68/2/3 88/2/3
f 86/2/9 87/2/9 49/2/9
f 49/2/9 48/2/9 86/2/9
f 92/2/3 93/2/3 54/2/3
f 54/2/3 55/2/3 92/2/3
f 90/2/9 91/2/9 41/2/9
f 41/2/9 40/2/9 90/2/9
f 95/1/9 96/1/48 97/1/49
f 97/1/49 98/1/50 95/1/9
f 100/1/52 99/1/51 3/1/3
f 3/1/3 101/1/53 100/1/52
f 104/1/56 103/1/55 3/1/3
f 3/1/3 105/1/57 104/1/56
f 95/1/9 108/1/60 109/1/61
f 109/1/61 110/1/62 95/1/9
f 94/1/47 95/1/9 111/1/63
f 111/1/63 112/1/64 94/1/47
f 113/1/65 115/1/67 114/1/66
f 114/1/66 116/1/68 113/1/65
f 113/1/65 116/1/68 117/1/69
f 117/1/69 118/1/70 113/1/65
f 119/1/71 118/1/70 117/1/69
f 117/1/69 120/1/72 119/1/71
f 117/1/69 116/1/68 99/1/51
f 99/1/51 100/1/52 117/1/69
f 2/1/2 99/1/51 116/1/68
f 116/1/68 114/1/66 2/1/2
f 1/3/1 2/3/2 114/3/66
f 114/3/66 132/3/84 1/3/1
f 120/1/72 117/1/69 100/1/52
f 100/1/52 101/1/53 120/1/72
f 119/1/71 120/1/72 121/1/73
f 121/1/73 122/1/74 119/1/71
f 121/1/73 120/1/72 101/1/53
f 101/1/53 102/1/54 121/1/73
f 123/1/75 122/1/74 121/1/73
f 121/1/73 124/1/76 123/1/75
f 124/1/76 121/1/73 102/1/54
f 102/1/54 103/1/55 124/1/76
f 123/1/75 124/1/76 125/1/77
f 125/1/77 126/1/78 123/1/75
f 125/1/77 124/1/76 103/1/55
f 103/1/55 104/1/56 125/1/77
f 127/3/79 126/3/78 125/3/77
f 125/3/77 128/3/80 127/3/79
f 128/3/80 125/3/77 104/3/56
f 104/3/56 105/3/57 128/3/80
f 127/3/79 128/3/80 129/3/81
f 129/3/81 130/3/82 127/3/79
f 129/3/81 128/3/80 105/3/57
f 105/3/57 106/3/58 129/3/81
f 131/3/83 130/3/82 129/3/81
f 129/3/81 132/3/84 131/3/83
f 132/3/84 129/3/81 106/3/58
f 106/3/58 1/3/1 132/3/84
f 131/3/83 132/3/84 114/3/66
f 114/3/66 115/3/67 131/3/83
f 135/1/87 134/1/86 133/1/85
f 133/1/85 136/1/88 135/1/87
f 137/1/89 133/1/85 134/1/86
f 134/1/86 138/1/90 137/1/89
f 139/1/91 137/1/89 138/1/90
f 138/1/90 140/1/71 139/1/91
f 141/1/92 139/1/91 140/1/71
f 140/1/71 142/1/74 141/1/92
f 143/1/93 141/1/92 142/1/74
f 142/1/74 144/1/75 143/1/93
f 145/1/94 143/1/93 144/1/75
f 144/1/75 146/1/78 145/1/94
f 147/3/95 145/3/94 146/3/78
f 146/3/78 148/3/79 147/3/95
f 149/3/96 147/3/95 148/3/79
f 148/3/79 150/3/82 149/3/96
f 151/3/97 149/3/96 150/3/82
f 150/3/82 152/3/98 151/3/97
f 136/3/88 151/3/97 152/3/98
f 152/3/98 135/3/87 136/3/88
f 139/1/91 141/1/92 107/1/59
f 107/1/59 98/1/50 139/1/91
f 108/1/60 107/1/59 141/1/92
f 141/1/92 143/1/93 108/1/60
f 137/1/89 139/1/91 98/1/50
f 98/1/50 97/1/49 137/1/89
f 109/1/61 108/1/60 143/1/93
f 143/1/93 145/1/94 109/1/61
f 133/1/85 137/1/89 97/1/49
f 97/1/49 96/1/48 133/1/85
f 136/1/88 133/1/85 96/1/48
f 96/1/48 94/1/47 136/1/88
f 110/1/62 109/1/61 145/1/94
f 145/1/94 147/1/95 110/1/62
f 151/1/97 136/1/88 94/1/47
f 94/1/47 112/1/64 151/1/97
f 111/1/63 110/1/62 147/1/95
f 147/1/95 149/1/96 111/1/63
f 149/1/96 151/1/97 112/1/64
f 112/1/64 111/1/63 149/1/96
f 155/1/101 154/1/100 153/1/99
f 153/1/99 156/1/102 155/1/101
f 157/1/103 155/1/101 156/1/102
f 156/1/102 158/1/104 157/1/103
f 7/1/6 157/1/103 158/1/104
f 158/1/104 164/1/110 7/1/6
f 158/1/104 156/1/102 159/1/105
f 159/1/105 160/1/106 158/1/104
f 159/1/105 156/1/102 153/1/99
f 153/1/99 161/1/107 159/1/105
f 158/1/104 160/1/106 162/1/108
f 162/1/108 164/1/110 158/1/104
f 163/1/109 161/1/107 153/1/99
f 153/1/99 179/1/124 163/1/109
f 5/1/5 7/1/6 164/1/110
f 164/1/110 165/1/111 5/1/5
f 165/1/111 164/1/110 162/1/108
f 162/1/108 166/1/112 165/1/111
f 4/3/4 5/3/5 165/3/111
f 165/3/111 168/3/114 4/3/4
f 165/3/111 166/3/112 167/3/113
f 167/3/113 168/3/114 165/3/111
f 169/3/115 4/3/4 168/3/114
f 168/3/114 170/3/116 169/3/115
f 170/3/116 168/3/114 167/3/113
f 167/3/113 171/3/117 170/3/116
f 172/3/118 169/3/115 170/3/116
f 170/3/116 174/3/120 172/3/118
f 170/3/116 171/3/117 173/3/119
f 173/3/119 174/3/120 170/3/116
f 175/3/121 172/3/118 174/3/120
f 174/3/120 176/3/122 175/3/121
f 176/3/122 174/3/120 173/3/119
f 173/3/119 177/3/123 176/3/122
f 178/1/14 175/1/121 176/1/122
f 176/1/122 179/1/124 178/1/14
f 176/1/122 177/1/123 163/1/109
f 163/1/109 179/1/124 176/1/122
f 154/1/100 178/1/14 179/1/124
f 179/1/124 153/1/99 154/1/100
f 181/1/9 182/1/126 183/1/127
f 183/1/127 184/1/128 181/1/9
f 157/1/103 7/1/6 6/1/3
f 6/1/3 155/1/101 157/1/103
f 175/1/121 178/1/14 6/1/3
f 6/1/3 172/1/118 175/1/121
f 181/1/9 186/1/17 187/1/130
f 187/1/130 188/1/131 181/1/9
f 180/1/125 181/1/9 189/1/132
f 189/1/132 190/1/133 180/1/125
f 192/1/9 191/1/9 177/1/9
f 177/1/9 173/1/9 192/1/9
f 195/3/3 194/3/3 193/3/3
f 193/3/3 196/3/3 195/3/3
f 197/1/3 195/1/3 196/1/3
f 196/1/3 198/1/3 197/1/3
f 199/1/3 197/1/3 198/1/3
f 198/1/3 200/1/3 199/1/3
f 201/1/3 199/1/3 200/1/3
f 200/1/3 202/1/3 201/1/3
f 203/1/3 201/1/3 202/1/3
f 202/1/3 204/1/3 203/1/3
f 205/1/3 203/1/3 204/1/3
f 204/1/3 206/1/3 205/1/3
f 207/1/3 205/1/3 206/1/3
f 206/1/3 208/1/3 207/1/3
f 209/3/3 207/3/3 208/3/3
f 208/3/3 210/3/3 209/3/3
f 211/3/3 209/3/3 210/3/3
f 210/3/3 212/3/3 211/3/3
f 194/3/3 211/3/3 212/3/3
f 212/3/3 193/3/3 194/3/3
f 163/1/9 177/1/9 191/1/9
f 191/1/9 213/1/9 163/1/9
f 161/1/9 163/1/9 213/1/9
f 213/1/9 214/1/9 161/1/9
f 159/1/9 161/1/9 214/1/9
f 214/1/9 215/1/9 159/1/9
f 160/1/134 159/1/9 215/1/9
f 215/1/9 216/1/135 160/1/134
f 162/1/135 160/1/134 216/1/135
f 216/1/135 217/1/136 162/1/135
f 166/1/137 162/1/135 217/1/136
f 217/1/136 218/1/138 166/1/137
f 167/3/138 166/3/137 218/3/138
f 218/3/138 219/3/139 167/3/138
f 171/1/9 167/1/138 219/1/139
f 219/1/139 220/1/9 171/1/9
f 173/1/9 171/1/9 220/1/9
f 220/1/9 192/1/9 173/1/9
f 224/1/142 221/1/140 10/1/9
f 10/1/9 226/1/144 224/1/142
f 10/1/9 223/1/141 225/1/143
f 225/1/143 227/1/63 10/1/9
f 231/1/3 229/1/55 232/1/147
f 232/1/147 233/1/148 231/1/3
f 237/1/58 235/1/150 230/1/146
f 230/1/146 231/1/3 237/1/58
f 231/1/3 234/1/149 236/1/151
f 236/1/151 238/1/152 231/1/3
f 242/1/156 241/1/155 240/1/154
f 240/1/154 243/1/157 242/1/156
f 244/1/158 243/1/157 240/1/154
f 240/1/154 245/1/159 244/1/158
f 244/1/158 245/1/159 246/1/160
f 246/1/160 247/1/161 244/1/158
f 234/1/149 243/1/157 244/1/158
f 244/1/158 236/1/151 234/1/149
f 243/1/157 234/1/149 233/1/148
f 233/1/148 242/1/156 243/1/157
f 242/3/156 233/3/148 232/3/147
f 232/3/147 259/3/165 242/3/156
f 236/1/151 244/1/158 247/1/161
f 247/1/161 238/1/152 236/1/151
f 248/1/162 247/1/161 246/1/160
f 246/1/160 249/1/163 248/1/162
f 238/1/152 247/1/161 248/1/162
f 248/1/162 239/1/153 238/1/152
f 248/1/162 249/1/163 250/1/82
f 250/1/82 251/1/81 248/1/162
f 239/1/153 248/1/162 251/1/81
f 251/1/81 237/1/58 239/1/153
f 252/1/80 251/1/81 250/1/82
f 250/1/82 253/1/79 252/1/80
f 237/1/58 251/1/81 252/1/80
f 252/1/80 235/1/150 237/1/58
f 252/3/80 253/3/79 254/3/78
f 254/3/78 255/3/77 252/3/80
f 235/3/150 252/3/80 255/3/77
f 255/3/77 230/3/146 235/3/150
f 256/3/76 255/3/77 254/3/78
f 254/3/78 257/3/75 256/3/76
f 230/3/146 255/3/77 256/3/76
f 256/3/76 229/3/55 230/3/146
f 256/3/76 257/3/75 258/3/164
f 258/3/164 259/3/165 256/3/76
f 229/3/55 256/3/76 259/3/165
f 259/3/165 232/3/147 229/3/55
f 242/3/156 259/3/165 258/3/164
f 258/3/164 241/3/155 242/3/156
f 262/1/168 261/1/167 260/1/166
f 260/1/166 263/1/169 262/1/168
f 263/1/169 260/1/166 264/1/170
f 264/1/170 265/1/171 263/1/169
f 265/1/171 264/1/170 266/1/172
f 266/1/172 267/1/160 265/1/171
f 267/1/160 266/1/172 268/1/173
f 268/1/173 269/1/163 267/1/160
f 269/1/163 268/1/173 270/1/96
f 270/1/96 271/1/82 269/1/163
f 271/1/82 270/1/96 272/1/95
f 272/1/95 273/1/79 271/1/82
f 273/3/79 272/3/95 274/3/94
f 274/3/94 275/3/78 273/3/79
f 275/3/78 274/3/94 276/3/93
f 276/3/93 277/3/75 275/3/78
f 277/3/75 276/3/93 278/3/174
f 278/3/174 279/3/175 277/3/75
f 279/3/175 278/3/174 261/3/167
f 261/3/167 262/3/168 279/3/175
f 228/1/145 268/1/173 266/1/172
f 266/1/172 226/1/144 228/1/145
f 268/1/173 228/1/145 227/1/63
f 227/1/63 270/1/96 268/1/173
f 226/1/144 266/1/172 264/1/170
f 264/1/170 224/1/142 226/1/144
f 270/1/96 227/1/63 225/1/143
f 225/1/143 272/1/95 270/1/96
f 224/1/142 264/1/170 260/1/166
f 260/1/166 221/1/140 224/1/142
f 221/1/140 260/1/166 261/1/167
f 261/1/167 9/1/8 221/1/140
f 272/1/95 225/1/143 223/1/141
f 223/1/141 274/1/94 272/1/95
f 9/1/8 261/1/167 278/1/174
f 278/1/174 8/1/7 9/1/8
f 274/1/94 223/1/141 222/1/60
f 222/1/60 276/1/93 274/1/94
f 8/1/7 278/1/174 276/1/93
f 276/1/93 222/1/60 8/1/7
f 280/1/176 16/1/13 14/1/3
f 14/1/3 17/1/14 280/1/176
f 14/1/3 15/1/12 281/1/177
f 281/1/177 282/1/178 14/1/3
f 14/1/3 284/1/115 285/1/180
f 285/1/180 18/1/15 14/1/3
f 286/1/181 12/1/11 13/1/9
f 13/1/9 287/1/182 286/1/181
f 290/1/184 289/1/132 13/1/9
f 13/1/9 21/1/18 290/1/184
f 293/3/9 292/3/9 291/3/9
f 291/3/9 294/3/9 293/3/9
f 297/3/3 296/3/3 295/3/3
f 295/3/3 298/3/3 297/3/3
f 296/1/3 297/1/3 299/1/3
f 299/1/3 300/1/3 296/1/3
f 300/1/3 299/1/3 301/1/3
f 301/1/3 302/1/3 300/1/3
f 302/1/3 301/1/3 303/1/3
f 303/1/3 304/1/3 302/1/3
f 304/1/3 303/1/3 305/1/3
f 305/1/3 306/1/3 304/1/3
f 306/1/3 305/1/3 307/1/3
f 307/1/3 308/1/3 306/1/3
f 308/1/3 307/1/3 309/1/3
f 309/1/3 310/1/3 308/1/3
f 310/3/3 309/3/3 311/3/3
f 311/3/3 312/3/3 310/3/3
f 312/3/3 311/3/3 313/3/3
f 313/3/3 314/3/3 312/3/3
f 314/3/3 313/3/3 298/3/3
f 298/3/3 295/3/3 314/3/3
f 294/1/9 291/1/9 315/1/9
f 315/1/9 316/1/9 294/1/9
f 316/1/9 315/1/9 317/1/9
f 317/1/9 318/1/9 316/1/9
f 318/1/9 317/1/9 319/1/9
f 319/1/9 320/1/9 318/1/9
f 320/1/9 319/1/9 321/1/185
f 321/1/185 322/1/186 320/1/9
f 322/1/186 321/1/185 323/1/186
f 323/1/186 324/1/187 322/1/186
f 324/1/187 323/1/186 325/1/188
f 325/1/188 326/1/189 324/1/187
f 326/3/189 325/3/188 327/3/189
f 327/3/189 328/3/190 326/3/189
f 328/3/190 327/3/189 329/3/9
f 329/3/9 330/3/9 328/3/190
f 330/3/9 329/3/9 292/3/9
f 292/3/9 293/3/9 330/3/9
f 331/2/191 333/2/193 332/2/192
f 332/2/192 334/2/194 331/2/191
f 334/2/194 332/2/192 335/2/195
f 335/2/195 336/2/196 334/2/194
f 336/2/196 335/2/195 337/2/197
f 337/2/197 338/2/198 336/2/196
f 338/2/198 337/2/197 339/2/199
f 339/2/199 340/2/200 338/2/198
f 340/2/200 339/2/199 341/2/201
f 341/2/201 342/2/202 340/2/200
f 333/2/193 331/2/191 343/2/203
f 343/2/203 344/2/204 333/2/193
f 344/2/204 343/2/203 345/2/205
f 345/2/205 346/2/206 344/2/204
f 346/2/206 345/2/205 347/2/207
f 347/2/207 348/2/208 346/2/206
f 348/2/208 347/2/207 349/2/209
f 349/2/209 350/2/210 348/2/208
f 350/2/210 349/2/209 351/2/211
f 351/2/211 352/2/212 350/2/210
f 354/2/214 353/2/213 352/2/212
f 352/2/212 351/2/211 354/2/214
f 342/2/202 341/2/201 353/2/213
f 353/2/213 354/2/214 342/2/202
f 355/2/3 346/2/206 348/2/208
f 348/2/208 356/2/3 355/2/3
f 356/2/3 348/2/208 350/2/210
f 350/2/210 357/2/3 356/2/3
f 357/2/3 350/2/210 352/2/212
f 352/2/212 353/2/213 357/2/3
f 337/2/197 335/2/195 355/2/3
f 355/2/3 356/2/3 337/2/197
f 339/2/199 337/2/197 356/2/3
f 356/2/3 357/2/3 339/2/199
f 341/2/201 339/2/199 357/2/3
f 357/2/3 353/2/213 341/2/201
f 358/2/215 360/2/215 359/2/216
f 359/2/216 361/2/216 358/2/215
f 361/2/216 359/2/216 362/2/217
f 362/2/217 363/2/217 361/2/216
f 363/2/217 362/2/217 364/2/218
f 364/2/218 365/2/218 363/2/217
f 365/2/218 364/2/218 366/2/219
f 366/2/219 367/2/219 365/2/218
f 367/2/219 366/2/219 368/2/220
f 368/2/220 369/2/220 367/2/219
f 360/2/215 358/2/215 370/2/221
f 370/2/221 371/2/221 360/2/215
f 371/2/221 370/2/221 372/2/222
f 372/2/222 373/2/222 371/2/221
f 373/2/222 372/2/222 374/2/223
f 374/2/223 375/2/223 373/2/222
f 375/2/223 374/2/223 376/2/224
f 376/2/224 377/2/224 375/2/223
f 377/2/224 376/2/224 378/2/225
f 378/2/225 379/2/225 377/2/224
f 381/2/227 380/2/227 379/2/226
f 379/2/226 378/2/226 381/2/227
f 369/2/228 368/2/228 380/2/227
f 380/2/227 381/2/227 369/2/228
f 382/2/3 373/2/3 375/2/3
f 375/2/3 383/2/3 382/2/3
f 383/2/3 375/2/3 377/2/3
f 377/2/3 384/2/3 383/2/3
f 384/2/3 377/2/3 379/2/3
f 379/2/3 380/2/3 384/2/3
f 364/2/3 362/2/3 382/2/3
f 382/2/3 383/2/3 364/2/3
f 366/2/3 364/2/3 383/2/3
f 383/2/3 384/2/3 366/2/3
f 368/2/3 366/2/3 384/2/3
f 384/2/3 380/2/3 368/2/3
f 385/2/229 387/2/231 386/2/230
f 386/2/230 388/2/232 385/2/229
f 388/2/232 386/2/230 389/2/233
f 389/2/233 390/2/234 388/2/232
f 390/2/234 389/2/233 391/2/235
f 391/2/235 392/2/236 390/2/234
f 392/2/236 391/2/235 393/2/237
f 393/2/237 394/2/238 392/2/236
f 394/2/238 393/2/237 395/2/239
f 395/2/239 396/2/240 394/2/238
f 387/2/231 385/2/229 397/2/241
f 397/2/241 398/2/242 387/2/231
f 398/2/242 397/2/241 399/2/243
f 399/2/243 400/2/244 398/2/242
f 400/2/244 399/2/243 401/2/245
f 401/2/245 402/2/246 400/2/244
f 402/2/246 401/2/245 403/2/247
f 403/2/247 404/2/248 402/2/246
f 404/2/248 403/2/247 405/2/249
f 405/2/249 406/2/250 404/2/248
f 408/2/252 407/2/251 406/2/250
f 406/2/250 405/2/249 408/2/252
f 396/2/240 395/2/239 407/2/251
f 407/2/251 408/2/252 396/2/240
f 409/2/9 400/2/244 402/2/246
f 402/2/246 410/2/9 409/2/9
f 410/2/9 402/2/246 404/2/248
f 404/2/248 411/2/9 410/2/9
f 411/2/9 404/2/248 406/2/250
f 406/2/250 407/2/251 411/2/9
f 391/2/235 389/2/233 409/2/9
f 409/2/9 410/2/9 391/2/235
f 393/2/237 391/2/235 410/2/9
f 410/2/9 411/2/9 393/2/237
f 395/2/239 393/2/237 411/2/9
f 411/2/9 407/2/251 395/2/239
f 412/2/253 414/2/253 413/2/254
f 413/2/254 415/2/254 412/2/253
f 415/2/254 413/2/254 416/2/255
f 416/2/255 417/2/255 415/2/254
f 417/2/255 416/2/255 418/2/256
f 418/2/256 419/2/256 417/2/255
f 419/2/256 418/2/256 420/2/257
f 420/2/257 421/2/257 419/2/256
f 421/2/257 420/2/257 422/2/258
f 422/2/258 423/2/258 421/2/257
f 414/2/253 412/2/253 424/2/259
f 424/2/259 425/2/259 414/2/253
f 425/2/259 424/2/259 426/2/260
f 426/2/260 427/2/260 425/2/259
f 427/2/260 426/2/260 428/2/261
f 428/2/261 429/2/261 427/2/260
f 429/2/261 428/2/261 430/2/262
f 430/2/262 431/2/262 429/2/261
f 431/2/262 430/2/262 432/2/263
f 432/2/263 433/2/263 431/2/262
f 435/2/265 434/2/265 433/2/264
f 433/2/264 432/2/264 435/2/265
f 423/2/266 422/2/266 434/2/265
f 434/2/265 435/2/265 423/2/266
f 436/2/9 427/2/9 429/2/9
f 429/2/9 437/2/9 436/2/9
f 437/2/9 429/2/9 431/2/9
f 431/2/9 438/2/9 437/2/9
f 438/2/9 431/2/9 433/2/9
f 433/2/9 434/2/9 438/2/9
f 418/2/9 416/2/9 436/2/9
f 436/2/9 437/2/9 418/2/9
f 420/2/9 418/2/9 437/2/9
f 437/2/9 438/2/9 420/2/9
f 422/2/9 420/2/9 438/2/9
f 438/2/9 434/2/9 422/2/9
f 439/3/124 329/3/109 327/3/267
f 327/3/267 440/3/268 439/3/124
f 292/3/123 329/3/109 439/3/124
f 439/3/124 442/3/122 292/3/123
f 441/3/269 440/3/268 327/3/267
f 327/3/267 325/3/270 441/3/269
f 441/1/269 325/1/270 323/1/271
f 323/1/271 443/1/272 441/1/269
f 17/3/14 439/3/124 440/3/268
f 440/3/268 280/3/176 17/3/14
f 280/3/176 440/3/268 441/3/269
f 441/3/269 16/3/13 280/3/176
f 439/3/124 17/3/14 18/3/15
f 18/3/15 442/3/122 439/3/124
f 442/3/122 18/3/15 285/3/180
f 285/3/180 444/3/120 442/3/122
f 16/1/13 441/1/269 443/1/272
f 443/1/272 15/1/12 16/1/13
f 292/3/123 442/3/122 444/3/120
f 444/3/120 291/3/119 292/3/123
f 444/1/120 285/1/180 284/1/115
f 284/1/115 446/1/276 444/1/120
f 315/1/117 291/1/119 444/1/120
f 444/1/120 446/1/276 315/1/117
f 445/1/273 443/1/272 323/1/271
f 323/1/271 321/1/274 445/1/273
f 15/1/12 443/1/272 445/1/273
f 445/1/273 281/1/177 15/1/12
f 445/1/273 321/1/274 319/1/275
f 319/1/275 447/1/277 445/1/273
f 446/1/276 284/1/115 283/1/179
f 283/1/179 448/1/278 446/1/276
f 281/1/177 445/1/273 447/1/277
f 447/1/277 282/1/178 281/1/177
f 315/1/117 446/1/276 448/1/278
f 448/1/278 317/1/279 315/1/117
f 448/1/278 283/1/179 282/1/178
f 282/1/178 447/1/277 448/1/278
f 448/1/278 447/1/277 319/1/275
f 319/1/275 317/1/279 448/1/278
f 257/1/9 450/1/9 449/1/280
f 449/1/280 258/1/281 257/1/9
f 450/1/9 257/1/9 254/1/9
f 254/1/9 452/1/9 450/1/9
f 258/3/281 449/3/280 451/3/281
f 451/3/281 241/3/282 258/3/281
f 452/1/9 254/1/9 253/1/9
f 253/1/9 454/1/9 452/1/9
f 241/1/282 451/1/281 453/1/283
f 453/1/283 240/1/284 241/1/282
f 454/1/9 253/1/9 250/1/9
f 250/1/9 456/1/9 454/1/9
f 240/1/284 453/1/283 455/1/284
f 455/1/284 245/1/285 240/1/284
f 456/1/9 250/1/9 249/1/9
f 249/1/9 458/1/9 456/1/9
f 245/1/285 455/1/284 457/1/9
f 457/1/9 246/1/9 245/1/285
f 458/1/9 249/1/9 246/1/9
f 246/1/9 457/1/9 458/1/9
f 459/3/3 277/3/3 279/3/3
f 279/3/3 460/3/3 459/3/3
f 277/3/3 459/3/3 461/3/3
f 461/3/3 275/3/3 277/3/3
f 460/3/3 279/3/3 262/3/3
f 262/3/3 462/3/3 460/3/3
f 275/3/3 461/3/3 463/3/3
f 463/3/3 273/3/3 275/3/3
f 462/1/3 262/1/3 263/1/3
f 263/1/3 464/1/3 462/1/3
f 273/1/3 463/1/3 465/1/3
f 465/1/3 271/1/3 273/1/3
f 464/1/3 263/1/3 265/1/3
f 265/1/3 466/1/3 464/1/3
f 271/1/3 465/1/3 467/1/3
f 467/1/3 269/1/3 271/1/3
f 466/1/3 265/1/3 267/1/3
f 267/1/3 468/1/3 466/1/3
f 468/1/3 267/1/3 269/1/3
f 269/1/3 467/1/3 468/1/3
f 470/3/286 469/3/9 130/3/9
f 130/3/9 131/3/287 470/3/286
f 127/3/9 130/3/9 469/3/9
f 469/3/9 472/3/9 127/3/9
f 471/3/287 470/3/286 131/3/287
f 131/3/287 115/3/288 471/3/287
f 126/3/9 127/3/9 472/3/9
f 472/3/9 474/3/9 126/3/9
f 473/1/289 471/1/287 115/1/288
f 115/1/288 113/1/290 473/1/289
f 123/1/9 126/1/9 474/1/9
f 474/1/9 476/1/9 123/1/9
f 475/1/290 473/1/289 113/1/290
f 113/1/290 118/1/291 475/1/290
f 122/1/9 123/1/9 476/1/9
f 476/1/9 478/1/9 122/1/9
f 477/1/9 475/1/290 118/1/291
f 118/1/291 119/1/9 477/1/9
f 119/1/9 122/1/9 478/1/9
f 478/1/9 477/1/9 119/1/9
f 152/3/3 150/3/3 479/3/3
f 479/3/3 480/3/3 152/3/3
f 481/3/3 479/3/3 150/3/3
f 150/3/3 148/3/3 481/3/3
f 135/3/3 152/3/3 480/3/3
f 480/3/3 482/3/3 135/3/3
f 483/3/3 481/3/3 148/3/3
f 148/3/3 146/3/3 483/3/3
f 134/1/3 135/1/3 482/1/3
f 482/1/3 484/1/3 134/1/3
f 485/1/3 483/1/3 146/1/3
f 146/1/3 144/1/3 485/1/3
f 138/1/3 134/1/3 484/1/3
f 484/1/3 486/1/3 138/1/3
f 487/1/3 485/1/3 144/1/3
f 144/1/3 142/1/3 487/1/3
f 140/1/3 138/1/3 486/1/3
f 486/1/3 488/1/3 140/1/3
f 488/1/3 487/1/3 142/1/3
f 142/1/3 140/1/3 488/1/3
f 491/4/294 490/4/293 489/4/292
f 489/4/292 492/4/295 491/4/294
f 491/4/294 492/4/295 493/4/296
f 493/4/296 495/4/298 491/4/294
f 492/4/295 489/4/292 494/4/297
f 494/4/297 497/4/300 492/4/295
f 490/4/293 491/4/294 495/4/298
f 495/4/298 496/4/299 490/4/293
f 501/4/304 493/4/296 492/4/295
f 492/4/295 497/4/300 501/4/304
f 497/4/300 494/4/297 498/4/301
f 498/4/301 501/4/304 497/4/300
f 496/4/299 495/4/298 499/4/302
f 499/4/302 500/4/303 496/4/299
f 501/4/304 498/4/301 502/4/305
f 502/4/305 505/4/308 501/4/304
f 500/4/303 499/4/302 503/4/306
f 503/4/306 504/4/307 500/4/303
f 503/4/306 499/4/302 493/4/296
f 493/4/296 505/4/308 503/4/306
f 505/4/308 502/4/305 504/4/307
f 504/4/307 503/4/306 505/4/308
f 328/3/309 330/3/310 313/3/310
f 313/3/310 311/3/311 328/3/309
f 298/3/123 313/3/310 330/3/310
f 330/3/310 293/3/123 298/3/123
f 326/1/312 328/1/309 311/1/311
f 311/1/311 309/1/313 326/1/312
f 297/3/119 298/3/123 293/3/123
f 293/3/123 294/3/119 297/3/119
f 324/1/314 326/1/312 309/1/313
f 309/1/313 307/1/312 324/1/314
f 299/1/315 297/1/119 294/1/119
f 294/1/119 316/1/315 299/1/315
f 322/1/316 324/1/314 307/1/312
f 307/1/312 305/1/317 322/1/316
f 301/1/318 299/1/315 316/1/315
f 316/1/315 318/1/318 301/1/318
f 320/1/275 322/1/316 305/1/317
f 305/1/317 303/1/275 320/1/275
f 303/1/275 301/1/318 318/1/318
f 318/1/318 320/1/275 303/1/275
f 506/3/319 314/3/109 295/3/123
f 295/3/123 507/3/320 506/3/319
f 507/3/320 295/3/123 296/3/119
f 296/3/119 509/3/323 507/3/320
f 314/3/109 506/3/319 508/3/321
f 508/3/321 312/3/322 314/3/109
f 509/1/323 296/1/119 300/1/117
f 300/1/117 511/1/326 509/1/323
f 312/3/322 508/3/321 510/3/324
f 510/3/324 310/3/325 312/3/322
f 511/1/326 300/1/117 302/1/279
f 302/1/279 513/1/329 511/1/326
f 310/1/325 510/1/324 512/1/327
f 512/1/327 308/1/328 310/1/325
f 513/1/329 302/1/279 304/1/275
f 304/1/275 515/1/332 513/1/329
f 308/1/328 512/1/327 514/1/330
f 514/1/330 306/1/331 308/1/328
f 515/1/332 304/1/275 306/1/331
f 306/1/331 514/1/330 515/1/332
f 11/1/10 510/1/324 508/1/321
f 508/1/321 19/1/16 11/1/10
f 510/1/324 11/1/10 12/1/11
f 12/1/11 512/1/327 510/1/324
f 512/1/327 12/1/11 286/1/181
f 286/1/181 514/1/330 512/1/327
f 19/1/16 508/1/321 506/1/319
f 506/1/319 20/1/17 19/1/16
f 514/1/330 286/1/181 287/1/182
f 287/1/182 515/1/332 514/1/330
f 515/1/332 287/1/182 288/1/183
f 288/1/183 513/1/329 515/1/332
f 20/1/17 506/1/319 507/1/320
f 507/1/320 21/1/18 20/1/17
f 513/1/329 288/1/183 289/1/132
f 289/1/132 511/1/326 513/1/329
f 21/1/18 507/1/320 509/1/323
f 509/1/323 290/1/184 21/1/18
f 511/1/326 289/1/132 290/1/184
f 290/1/184 509/1/323 511/1/326
f 449/3/333 450/3/334 459/3/334
f 459/3/334 460/3/335 449/3/333
f 461/3/78 459/3/334 450/3/334
f 450/3/334 452/3/78 461/3/78
f 451/1/336 449/1/333 460/1/335
f 460/1/335 462/1/337 451/1/336
f 463/3/79 461/3/78 452/3/78
f 452/3/78 454/3/79 463/3/79
f 453/1/338 451/1/336 462/1/337
f 462/1/337 464/1/336 453/1/338
f 465/1/339 463/1/79 454/1/79
f 454/1/79 456/1/339 465/1/339
f 455/1/340 453/1/338 464/1/336
f 464/1/336 466/1/341 455/1/340
f 467/1/342 465/1/339 456/1/339
f 456/1/339 458/1/342 467/1/342
f 457/1/160 455/1/340 466/1/341
f 466/1/341 468/1/160 457/1/160
f 468/1/160 467/1/342 458/1/342
f 458/1/342 457/1/160 468/1/160
f 516/4/343 518/4/345 517/4/344
f 517/4/344 519/4/346 516/4/343
f 520/5/3 519/5/346 517/5/344
f 517/5/344 522/5/348 520/5/3
f 521/4/347 516/4/343 519/4/346
f 519/4/346 524/4/350 521/4/347
f 522/4/348 517/4/344 518/4/345
f 518/4/345 523/4/349 522/4/348
f 528/5/354 524/5/350 519/5/346
f 519/5/346 520/5/3 528/5/354
f 525/4/351 521/4/347 524/4/350
f 524/4/350 528/4/354 525/4/351
f 526/4/352 522/4/348 523/4/349
f 523/4/349 527/4/353 526/4/352
f 520/5/3 522/5/348 526/5/352
f 526/5/352 530/5/356 520/5/3
f 529/4/355 525/4/351 528/4/354
f 528/4/354 532/4/358 529/4/355
f 530/4/356 526/4/352 527/4/353
f 527/4/353 531/4/357 530/4/356
f 531/4/357 529/4/355 532/4/358
f 532/4/358 530/4/356 531/4/357
f 530/5/356 532/5/358 528/5/354
f 528/5/354 520/5/3 530/5/356
f 211/3/360 220/3/360 219/3/359
f 219/3/359 209/3/361 211/3/360
f 220/3/360 211/3/360 194/3/119
f 194/3/119 192/3/119 220/3/360
f 209/1/361 219/1/359 218/1/362
f 218/1/362 207/1/363 209/1/361
f 192/3/119 194/3/119 195/3/123
f 195/3/123 191/3/123 192/3/119
f 207/1/363 218/1/362 217/1/364
f 217/1/364 205/1/362 207/1/363
f 191/1/123 195/1/123 197/1/365
f 197/1/365 213/1/365 191/1/123
f 205/1/362 217/1/364 216/1/366
f 216/1/366 203/1/367 205/1/362
f 213/1/365 197/1/365 199/1/368
f 199/1/368 214/1/368 213/1/365
f 203/1/367 216/1/366 215/1/105
f 215/1/105 201/1/105 203/1/367
f 201/1/105 215/1/105 214/1/368
f 214/1/368 199/1/368 201/1/105
f 534/3/326 533/3/323 193/3/119
f 193/3/119 212/3/117 534/3/326
f 196/3/123 193/3/119 533/3/323
f 533/3/323 536/3/320 196/3/123
f 535/3/369 534/3/326 212/3/117
f 212/3/117 210/3/370 535/3/369
f 198/1/109 196/1/123 536/1/320
f 536/1/320 538/1/319 198/1/109
f 537/3/371 535/3/369 210/3/370
f 210/3/370 208/3/372 537/3/371
f 200/1/107 198/1/109 538/1/319
f 538/1/319 540/1/375 200/1/107
f 539/1/373 537/1/371 208/1/372
f 208/1/372 206/1/374 539/1/373
f 202/1/105 200/1/107 540/1/375
f 540/1/375 542/1/378 202/1/105
f 541/1/376 539/1/373 206/1/374
f 206/1/374 204/1/377 541/1/376
f 204/1/377 202/1/105 542/1/378
f 542/1/378 541/1/376 204/1/377
f 535/1/369 537/1/371 180/1/125
f 180/1/125 190/1/133 535/1/369
f 182/1/126 180/1/125 537/1/371
f 537/1/371 539/1/373 182/1/126
f 183/1/127 182/1/126 539/1/373
f 539/1/373 541/1/376 183/1/127
f 534/1/326 535/1/369 190/1/133
f 190/1/133 189/1/132 534/1/326
f 184/1/128 183/1/127 541/1/376
f 541/1/376 542/1/378 184/1/128
f 185/1/129 184/1/128 542/1/378
f 542/1/378 540/1/375 185/1/129
f 533/1/323 534/1/326 189/1/132
f 189/1/132 188/1/131 533/1/323
f 186/1/17 185/1/129 540/1/375
f 540/1/375 538/1/319 186/1/17
f 536/1/320 533/1/323 188/1/131
f 188/1/131 187/1/130 536/1/320
f 187/1/130 186/1/17 538/1/319
f 538/1/319 536/1/320 187/1/130
f 479/3/380 469/3/380 470/3/379
f 470/3/379 480/3/381 479/3/380
f 469/3/380 479/3/380 481/3/79
f 481/3/79 472/3/79 469/3/380
f 480/1/381 470/1/379 471/1/382
f 471/1/382 482/1/383 480/1/381
f 472/3/79 481/3/79 483/3/78
f 483/3/78 474/3/78 472/3/79
f 482/1/383 471/1/382 473/1/384
f 473/1/384 484/1/382 482/1/383
f 474/1/78 483/1/78 485/1/385
f 485/1/385 476/1/385 474/1/78
f 484/1/382 473/1/384 475/1/386
f 475/1/386 486/1/387 484/1/382
f 476/1/385 485/1/385 487/1/388
f 487/1/388 478/1/388 476/1/385
f 486/1/387 475/1/386 477/1/71
f 477/1/71 488/1/71 486/1/387
f 488/1/71 477/1/71 478/1/388
f 478/1/388 487/1/388 488/1/71
f 545/4/344 544/4/345 543/4/349
f 543/4/349 546/4/348 545/4/344
f 545/5/344 546/5/348 547/5/389
f 547/5/389 549/5/346 545/5/344
f 546/4/348 543/4/349 548/4/353
f 548/4/353 551/4/352 546/4/348
f 544/4/345 545/4/344 549/4/346
f 549/4/346 550/4/343 544/4/345
f 555/5/356 547/5/389 546/5/348
f 546/5/348 551/5/352 555/5/356
f 551/4/352 548/4/353 552/4/357
f 552/4/357 555/4/356 551/4/352
f 550/4/343 549/4/346 553/4/390
f 553/4/390 554/4/347 550/4/343
f 555/4/356 552/4/357 556/4/355
f 556/4/355 559/4/358 555/4/356
f 554/4/347 553/4/390 557/4/354
f 557/4/354 558/4/351 554/4/347
f 559/4/358 556/4/355 558/4/351
f 558/4/351 557/4/354 559/4/358
f 557/5/354 547/5/389 555/5/356
f 555/5/356 559/5/358 557/5/354
f 560/4/301 562/4/305 561/4/391
f 561/4/391 563/4/304 560/4/301
f 564/4/392 563/4/304 561/4/391
f 561/4/391 566/4/393 564/4/392
f 565/4/297 560/4/301 563/4/304
f 563/4/304 568/4/300 565/4/297
f 566/4/393 561/4/391 562/4/305
f 562/4/305 567/4/307 566/4/393
f 572/4/295 568/4/300 563/4/304
f 563/4/304 564/4/392 572/4/295
f 569/4/292 565/4/297 568/4/300
f 568/4/300 572/4/295 569/4/292
f 570/4/302 566/4/393 567/4/307
f 567/4/307 571/4/303 570/4/302
f 573/4/293 569/4/292 572/4/295
f 572/4/295 576/4/395 573/4/293
f 574/4/394 570/4/302 571/4/303
f 571/4/303 575/4/299 574/4/394
f 564/4/392 570/4/302 574/4/394
f 574/4/394 576/4/395 564/4/392
f 575/4/299 573/4/293 576/4/395
f 576/4/395 574/4/394 575/4/299
f 577/4/357 579/4/355 578/4/358
f 578/4/358 580/4/356 577/4/357
f 581/5/396 580/5/356 578/5/358
f 578/5/358 583/5/354 581/5/396
f 582/4/353 577/4/357 580/4/356
f 580/4/356 585/4/352 582/4/353
f 583/4/354 578/4/358 579/4/355
f 579/4/355 584/4/351 583/4/354
f 589/5/348 585/5/352 580/5/356
f 580/5/356 581/5/396 589/5/348
f 586/4/349 582/4/353 585/4/352
f 585/4/352 589/4/348 586/4/349
f 587/4/390 583/4/354 584/4/351
f 584/4/351 588/4/347 587/4/390
f 590/4/345 586/4/349 589/4/348
f 589/4/348 593/4/398 590/4/345
f 591/4/397 587/4/390 588/4/347
f 588/4/347 592/4/343 591/4/397
f 581/5/396 587/5/390 591/5/397
f 591/5/397 593/5/398 581/5/396
f 592/4/343 590/4/345 593/4/398
f 593/4/398 591/4/397 592/4/343
f 596/4/391 595/4/305 594/4/307
f 594/4/307 597/4/393 596/4/391
f 596/4/391 597/4/393 598/4/9
f 598/4/9 600/4/304 596/4/391
f 597/4/393 594/4/307 599/4/303
f 599/4/303 602/4/399 597/4/393
f 595/4/305 596/4/391 600/4/304
f 600/4/304 601/4/301 595/4/305
f 606/4/298 598/4/9 597/4/393
f 597/4/393 602/4/399 606/4/298
f 602/4/399 599/4/303 603/4/299
f 603/4/299 606/4/298 602/4/399
f 601/4/301 600/4/304 604/4/300
f 604/4/300 605/4/297 601/4/301
f 604/4/300 600/4/304 598/4/9
f 598/4/9 608/4/295 604/4/300
f 606/4/298 603/4/299 607/4/293
f 607/4/293 610/4/294 606/4/298
f 605/4/297 604/4/300 608/4/295
f 608/4/295 609/4/292 605/4/297
f 610/4/294 607/4/293 609/4/292
f 609/4/292 608/4/295 610/4/294
f 608/4/295 598/4/9 606/4/298
f 606/4/298 610/4/294 608/4/295
f 613/4/358 612/4/355 611/4/351
f 611/4/351 614/4/354 613/4/358
f 613/5/358 614/5/354 615/5/400
f 615/5/400 617/5/356 613/5/358
f 614/4/354 611/4/351 616/4/347
f 616/4/347 619/4/350 614/4/354
f 612/4/355 613/4/358 617/4/356
f 617/4/356 618/4/357 612/4/355
f 623/5/346 615/5/400 614/5/354
f 614/5/354 619/5/350 623/5/346
f 619/4/350 616/4/347 620/4/343
f 620/4/343 623/4/346 619/4/350
f 618/4/357 617/4/356 621/4/401
f 621/4/401 622/4/353 618/4/357
f 623/4/346 620/4/343 624/4/345
f 624/4/345 627/4/398 623/4/346
f 622/4/353 621/4/401 625/4/402
f 625/4/402 626/4/349 622/4/353
f 625/5/402 621/5/401 615/5/400
f 615/5/400 627/5/398 625/5/402
f 627/4/398 624/4/345 626/4/349
f 626/4/349 625/4/402 627/4/398
f 628/4/299 630/4/293 629/4/294
f 629/4/294 631/4/298 628/4/299
f 632/4/403 631/4/298 629/4/294
f 629/4/294 634/4/295 632/4/403
f 633/4/303 628/4/299 631/4/298
f 631/4/298 636/4/399 633/4/303
f 634/4/295 629/4/294 630/4/293
f 630/4/293 635/4/292 634/4/295
f 640/4/393 636/4/399 631/4/298
f 631/4/298 632/4/403 640/4/393
f 637/4/307 633/4/303 636/4/399
f 636/4/399 640/4/393 637/4/307
f 638/4/404 634/4/295 635/4/292
f 635/4/292 639/4/297 638/4/404
f 641/4/305 637/4/307 640/4/393
f 640/4/393 644/4/308 641/4/305
f 642/4/405 638/4/404 639/4/297
f 639/4/297 643/4/301 642/4/405
f 632/4/403 638/4/404 642/4/405
f 642/4/405 644/4/308 632/4/403
f 643/4/301 641/4/305 644/4/308
f 644/4/308 642/4/405 643/4/301

